%TF.GenerationSoftware,KiCad,Pcbnew,(5.1.6)-1*%
%TF.CreationDate,2020-11-02T11:11:50+01:00*%
%TF.ProjectId,ltz10v,6c747a31-3076-42e6-9b69-6361645f7063,rev?*%
%TF.SameCoordinates,Original*%
%TF.FileFunction,Paste,Bot*%
%TF.FilePolarity,Positive*%
%FSLAX46Y46*%
G04 Gerber Fmt 4.6, Leading zero omitted, Abs format (unit mm)*
G04 Created by KiCad (PCBNEW (5.1.6)-1) date 2020-11-02 11:11:50*
%MOMM*%
%LPD*%
G01*
G04 APERTURE LIST*
%ADD10R,2.000000X1.500000*%
%ADD11R,2.000000X3.800000*%
G04 APERTURE END LIST*
%TO.C,R940*%
G36*
G01*
X176075000Y-101400001D02*
X176075000Y-96599999D01*
G75*
G02*
X176324999Y-96350000I249999J0D01*
G01*
X177475001Y-96350000D01*
G75*
G02*
X177725000Y-96599999I0J-249999D01*
G01*
X177725000Y-101400001D01*
G75*
G02*
X177475001Y-101650000I-249999J0D01*
G01*
X176324999Y-101650000D01*
G75*
G02*
X176075000Y-101400001I0J249999D01*
G01*
G37*
G36*
G01*
X166275000Y-101400001D02*
X166275000Y-96599999D01*
G75*
G02*
X166524999Y-96350000I249999J0D01*
G01*
X167675001Y-96350000D01*
G75*
G02*
X167925000Y-96599999I0J-249999D01*
G01*
X167925000Y-101400001D01*
G75*
G02*
X167675001Y-101650000I-249999J0D01*
G01*
X166524999Y-101650000D01*
G75*
G02*
X166275000Y-101400001I0J249999D01*
G01*
G37*
%TD*%
%TO.C,R942*%
G36*
G01*
X172450000Y-92456250D02*
X172450000Y-91543750D01*
G75*
G02*
X172693750Y-91300000I243750J0D01*
G01*
X173181250Y-91300000D01*
G75*
G02*
X173425000Y-91543750I0J-243750D01*
G01*
X173425000Y-92456250D01*
G75*
G02*
X173181250Y-92700000I-243750J0D01*
G01*
X172693750Y-92700000D01*
G75*
G02*
X172450000Y-92456250I0J243750D01*
G01*
G37*
G36*
G01*
X170575000Y-92456250D02*
X170575000Y-91543750D01*
G75*
G02*
X170818750Y-91300000I243750J0D01*
G01*
X171306250Y-91300000D01*
G75*
G02*
X171550000Y-91543750I0J-243750D01*
G01*
X171550000Y-92456250D01*
G75*
G02*
X171306250Y-92700000I-243750J0D01*
G01*
X170818750Y-92700000D01*
G75*
G02*
X170575000Y-92456250I0J243750D01*
G01*
G37*
%TD*%
%TO.C,R941*%
G36*
G01*
X176450000Y-92456250D02*
X176450000Y-91543750D01*
G75*
G02*
X176693750Y-91300000I243750J0D01*
G01*
X177181250Y-91300000D01*
G75*
G02*
X177425000Y-91543750I0J-243750D01*
G01*
X177425000Y-92456250D01*
G75*
G02*
X177181250Y-92700000I-243750J0D01*
G01*
X176693750Y-92700000D01*
G75*
G02*
X176450000Y-92456250I0J243750D01*
G01*
G37*
G36*
G01*
X174575000Y-92456250D02*
X174575000Y-91543750D01*
G75*
G02*
X174818750Y-91300000I243750J0D01*
G01*
X175306250Y-91300000D01*
G75*
G02*
X175550000Y-91543750I0J-243750D01*
G01*
X175550000Y-92456250D01*
G75*
G02*
X175306250Y-92700000I-243750J0D01*
G01*
X174818750Y-92700000D01*
G75*
G02*
X174575000Y-92456250I0J243750D01*
G01*
G37*
%TD*%
%TO.C,R939*%
G36*
G01*
X143456250Y-88550000D02*
X142543750Y-88550000D01*
G75*
G02*
X142300000Y-88306250I0J243750D01*
G01*
X142300000Y-87818750D01*
G75*
G02*
X142543750Y-87575000I243750J0D01*
G01*
X143456250Y-87575000D01*
G75*
G02*
X143700000Y-87818750I0J-243750D01*
G01*
X143700000Y-88306250D01*
G75*
G02*
X143456250Y-88550000I-243750J0D01*
G01*
G37*
G36*
G01*
X143456250Y-90425000D02*
X142543750Y-90425000D01*
G75*
G02*
X142300000Y-90181250I0J243750D01*
G01*
X142300000Y-89693750D01*
G75*
G02*
X142543750Y-89450000I243750J0D01*
G01*
X143456250Y-89450000D01*
G75*
G02*
X143700000Y-89693750I0J-243750D01*
G01*
X143700000Y-90181250D01*
G75*
G02*
X143456250Y-90425000I-243750J0D01*
G01*
G37*
%TD*%
%TO.C,R938*%
G36*
G01*
X163050000Y-101043750D02*
X163050000Y-101956250D01*
G75*
G02*
X162806250Y-102200000I-243750J0D01*
G01*
X162318750Y-102200000D01*
G75*
G02*
X162075000Y-101956250I0J243750D01*
G01*
X162075000Y-101043750D01*
G75*
G02*
X162318750Y-100800000I243750J0D01*
G01*
X162806250Y-100800000D01*
G75*
G02*
X163050000Y-101043750I0J-243750D01*
G01*
G37*
G36*
G01*
X164925000Y-101043750D02*
X164925000Y-101956250D01*
G75*
G02*
X164681250Y-102200000I-243750J0D01*
G01*
X164193750Y-102200000D01*
G75*
G02*
X163950000Y-101956250I0J243750D01*
G01*
X163950000Y-101043750D01*
G75*
G02*
X164193750Y-100800000I243750J0D01*
G01*
X164681250Y-100800000D01*
G75*
G02*
X164925000Y-101043750I0J-243750D01*
G01*
G37*
%TD*%
%TO.C,C33*%
G36*
G01*
X166450000Y-86956250D02*
X166450000Y-86043750D01*
G75*
G02*
X166693750Y-85800000I243750J0D01*
G01*
X167181250Y-85800000D01*
G75*
G02*
X167425000Y-86043750I0J-243750D01*
G01*
X167425000Y-86956250D01*
G75*
G02*
X167181250Y-87200000I-243750J0D01*
G01*
X166693750Y-87200000D01*
G75*
G02*
X166450000Y-86956250I0J243750D01*
G01*
G37*
G36*
G01*
X164575000Y-86956250D02*
X164575000Y-86043750D01*
G75*
G02*
X164818750Y-85800000I243750J0D01*
G01*
X165306250Y-85800000D01*
G75*
G02*
X165550000Y-86043750I0J-243750D01*
G01*
X165550000Y-86956250D01*
G75*
G02*
X165306250Y-87200000I-243750J0D01*
G01*
X164818750Y-87200000D01*
G75*
G02*
X164575000Y-86956250I0J243750D01*
G01*
G37*
%TD*%
%TO.C,C32*%
G36*
G01*
X153050000Y-103043750D02*
X153050000Y-103956250D01*
G75*
G02*
X152806250Y-104200000I-243750J0D01*
G01*
X152318750Y-104200000D01*
G75*
G02*
X152075000Y-103956250I0J243750D01*
G01*
X152075000Y-103043750D01*
G75*
G02*
X152318750Y-102800000I243750J0D01*
G01*
X152806250Y-102800000D01*
G75*
G02*
X153050000Y-103043750I0J-243750D01*
G01*
G37*
G36*
G01*
X154925000Y-103043750D02*
X154925000Y-103956250D01*
G75*
G02*
X154681250Y-104200000I-243750J0D01*
G01*
X154193750Y-104200000D01*
G75*
G02*
X153950000Y-103956250I0J243750D01*
G01*
X153950000Y-103043750D01*
G75*
G02*
X154193750Y-102800000I243750J0D01*
G01*
X154681250Y-102800000D01*
G75*
G02*
X154925000Y-103043750I0J-243750D01*
G01*
G37*
%TD*%
%TO.C,C31*%
G36*
G01*
X153050000Y-100543750D02*
X153050000Y-101456250D01*
G75*
G02*
X152806250Y-101700000I-243750J0D01*
G01*
X152318750Y-101700000D01*
G75*
G02*
X152075000Y-101456250I0J243750D01*
G01*
X152075000Y-100543750D01*
G75*
G02*
X152318750Y-100300000I243750J0D01*
G01*
X152806250Y-100300000D01*
G75*
G02*
X153050000Y-100543750I0J-243750D01*
G01*
G37*
G36*
G01*
X154925000Y-100543750D02*
X154925000Y-101456250D01*
G75*
G02*
X154681250Y-101700000I-243750J0D01*
G01*
X154193750Y-101700000D01*
G75*
G02*
X153950000Y-101456250I0J243750D01*
G01*
X153950000Y-100543750D01*
G75*
G02*
X154193750Y-100300000I243750J0D01*
G01*
X154681250Y-100300000D01*
G75*
G02*
X154925000Y-100543750I0J-243750D01*
G01*
G37*
%TD*%
%TO.C,C30*%
G36*
G01*
X176450000Y-89956250D02*
X176450000Y-89043750D01*
G75*
G02*
X176693750Y-88800000I243750J0D01*
G01*
X177181250Y-88800000D01*
G75*
G02*
X177425000Y-89043750I0J-243750D01*
G01*
X177425000Y-89956250D01*
G75*
G02*
X177181250Y-90200000I-243750J0D01*
G01*
X176693750Y-90200000D01*
G75*
G02*
X176450000Y-89956250I0J243750D01*
G01*
G37*
G36*
G01*
X174575000Y-89956250D02*
X174575000Y-89043750D01*
G75*
G02*
X174818750Y-88800000I243750J0D01*
G01*
X175306250Y-88800000D01*
G75*
G02*
X175550000Y-89043750I0J-243750D01*
G01*
X175550000Y-89956250D01*
G75*
G02*
X175306250Y-90200000I-243750J0D01*
G01*
X174818750Y-90200000D01*
G75*
G02*
X174575000Y-89956250I0J243750D01*
G01*
G37*
%TD*%
%TO.C,C29*%
G36*
G01*
X166450000Y-94956250D02*
X166450000Y-94043750D01*
G75*
G02*
X166693750Y-93800000I243750J0D01*
G01*
X167181250Y-93800000D01*
G75*
G02*
X167425000Y-94043750I0J-243750D01*
G01*
X167425000Y-94956250D01*
G75*
G02*
X167181250Y-95200000I-243750J0D01*
G01*
X166693750Y-95200000D01*
G75*
G02*
X166450000Y-94956250I0J243750D01*
G01*
G37*
G36*
G01*
X164575000Y-94956250D02*
X164575000Y-94043750D01*
G75*
G02*
X164818750Y-93800000I243750J0D01*
G01*
X165306250Y-93800000D01*
G75*
G02*
X165550000Y-94043750I0J-243750D01*
G01*
X165550000Y-94956250D01*
G75*
G02*
X165306250Y-95200000I-243750J0D01*
G01*
X164818750Y-95200000D01*
G75*
G02*
X164575000Y-94956250I0J243750D01*
G01*
G37*
%TD*%
%TO.C,C28*%
G36*
G01*
X162450000Y-86956250D02*
X162450000Y-86043750D01*
G75*
G02*
X162693750Y-85800000I243750J0D01*
G01*
X163181250Y-85800000D01*
G75*
G02*
X163425000Y-86043750I0J-243750D01*
G01*
X163425000Y-86956250D01*
G75*
G02*
X163181250Y-87200000I-243750J0D01*
G01*
X162693750Y-87200000D01*
G75*
G02*
X162450000Y-86956250I0J243750D01*
G01*
G37*
G36*
G01*
X160575000Y-86956250D02*
X160575000Y-86043750D01*
G75*
G02*
X160818750Y-85800000I243750J0D01*
G01*
X161306250Y-85800000D01*
G75*
G02*
X161550000Y-86043750I0J-243750D01*
G01*
X161550000Y-86956250D01*
G75*
G02*
X161306250Y-87200000I-243750J0D01*
G01*
X160818750Y-87200000D01*
G75*
G02*
X160575000Y-86956250I0J243750D01*
G01*
G37*
%TD*%
%TO.C,C27*%
G36*
G01*
X153050000Y-74043750D02*
X153050000Y-74956250D01*
G75*
G02*
X152806250Y-75200000I-243750J0D01*
G01*
X152318750Y-75200000D01*
G75*
G02*
X152075000Y-74956250I0J243750D01*
G01*
X152075000Y-74043750D01*
G75*
G02*
X152318750Y-73800000I243750J0D01*
G01*
X152806250Y-73800000D01*
G75*
G02*
X153050000Y-74043750I0J-243750D01*
G01*
G37*
G36*
G01*
X154925000Y-74043750D02*
X154925000Y-74956250D01*
G75*
G02*
X154681250Y-75200000I-243750J0D01*
G01*
X154193750Y-75200000D01*
G75*
G02*
X153950000Y-74956250I0J243750D01*
G01*
X153950000Y-74043750D01*
G75*
G02*
X154193750Y-73800000I243750J0D01*
G01*
X154681250Y-73800000D01*
G75*
G02*
X154925000Y-74043750I0J-243750D01*
G01*
G37*
%TD*%
%TO.C,C26*%
G36*
G01*
X153050000Y-76543750D02*
X153050000Y-77456250D01*
G75*
G02*
X152806250Y-77700000I-243750J0D01*
G01*
X152318750Y-77700000D01*
G75*
G02*
X152075000Y-77456250I0J243750D01*
G01*
X152075000Y-76543750D01*
G75*
G02*
X152318750Y-76300000I243750J0D01*
G01*
X152806250Y-76300000D01*
G75*
G02*
X153050000Y-76543750I0J-243750D01*
G01*
G37*
G36*
G01*
X154925000Y-76543750D02*
X154925000Y-77456250D01*
G75*
G02*
X154681250Y-77700000I-243750J0D01*
G01*
X154193750Y-77700000D01*
G75*
G02*
X153950000Y-77456250I0J243750D01*
G01*
X153950000Y-76543750D01*
G75*
G02*
X154193750Y-76300000I243750J0D01*
G01*
X154681250Y-76300000D01*
G75*
G02*
X154925000Y-76543750I0J-243750D01*
G01*
G37*
%TD*%
%TO.C,C25*%
G36*
G01*
X166450000Y-77956250D02*
X166450000Y-77043750D01*
G75*
G02*
X166693750Y-76800000I243750J0D01*
G01*
X167181250Y-76800000D01*
G75*
G02*
X167425000Y-77043750I0J-243750D01*
G01*
X167425000Y-77956250D01*
G75*
G02*
X167181250Y-78200000I-243750J0D01*
G01*
X166693750Y-78200000D01*
G75*
G02*
X166450000Y-77956250I0J243750D01*
G01*
G37*
G36*
G01*
X164575000Y-77956250D02*
X164575000Y-77043750D01*
G75*
G02*
X164818750Y-76800000I243750J0D01*
G01*
X165306250Y-76800000D01*
G75*
G02*
X165550000Y-77043750I0J-243750D01*
G01*
X165550000Y-77956250D01*
G75*
G02*
X165306250Y-78200000I-243750J0D01*
G01*
X164818750Y-78200000D01*
G75*
G02*
X164575000Y-77956250I0J243750D01*
G01*
G37*
%TD*%
%TO.C,RN1*%
G36*
G01*
X162080000Y-97740000D02*
X162080000Y-97320000D01*
G75*
G02*
X162250000Y-97150000I170000J0D01*
G01*
X162590000Y-97150000D01*
G75*
G02*
X162760000Y-97320000I0J-170000D01*
G01*
X162760000Y-97740000D01*
G75*
G02*
X162590000Y-97910000I-170000J0D01*
G01*
X162250000Y-97910000D01*
G75*
G02*
X162080000Y-97740000I0J170000D01*
G01*
G37*
G36*
G01*
X162080000Y-98680000D02*
X162080000Y-98260000D01*
G75*
G02*
X162250000Y-98090000I170000J0D01*
G01*
X162590000Y-98090000D01*
G75*
G02*
X162760000Y-98260000I0J-170000D01*
G01*
X162760000Y-98680000D01*
G75*
G02*
X162590000Y-98850000I-170000J0D01*
G01*
X162250000Y-98850000D01*
G75*
G02*
X162080000Y-98680000I0J170000D01*
G01*
G37*
G36*
G01*
X161240000Y-97740000D02*
X161240000Y-97320000D01*
G75*
G02*
X161410000Y-97150000I170000J0D01*
G01*
X161750000Y-97150000D01*
G75*
G02*
X161920000Y-97320000I0J-170000D01*
G01*
X161920000Y-97740000D01*
G75*
G02*
X161750000Y-97910000I-170000J0D01*
G01*
X161410000Y-97910000D01*
G75*
G02*
X161240000Y-97740000I0J170000D01*
G01*
G37*
G36*
G01*
X161240000Y-98680000D02*
X161240000Y-98260000D01*
G75*
G02*
X161410000Y-98090000I170000J0D01*
G01*
X161750000Y-98090000D01*
G75*
G02*
X161920000Y-98260000I0J-170000D01*
G01*
X161920000Y-98680000D01*
G75*
G02*
X161750000Y-98850000I-170000J0D01*
G01*
X161410000Y-98850000D01*
G75*
G02*
X161240000Y-98680000I0J170000D01*
G01*
G37*
G36*
G01*
X163425000Y-99075000D02*
X163425000Y-98875000D01*
G75*
G02*
X163525000Y-98775000I100000J0D01*
G01*
X164775000Y-98775000D01*
G75*
G02*
X164875000Y-98875000I0J-100000D01*
G01*
X164875000Y-99075000D01*
G75*
G02*
X164775000Y-99175000I-100000J0D01*
G01*
X163525000Y-99175000D01*
G75*
G02*
X163425000Y-99075000I0J100000D01*
G01*
G37*
G36*
G01*
X163425000Y-98425000D02*
X163425000Y-98225000D01*
G75*
G02*
X163525000Y-98125000I100000J0D01*
G01*
X164775000Y-98125000D01*
G75*
G02*
X164875000Y-98225000I0J-100000D01*
G01*
X164875000Y-98425000D01*
G75*
G02*
X164775000Y-98525000I-100000J0D01*
G01*
X163525000Y-98525000D01*
G75*
G02*
X163425000Y-98425000I0J100000D01*
G01*
G37*
G36*
G01*
X163425000Y-97775000D02*
X163425000Y-97575000D01*
G75*
G02*
X163525000Y-97475000I100000J0D01*
G01*
X164775000Y-97475000D01*
G75*
G02*
X164875000Y-97575000I0J-100000D01*
G01*
X164875000Y-97775000D01*
G75*
G02*
X164775000Y-97875000I-100000J0D01*
G01*
X163525000Y-97875000D01*
G75*
G02*
X163425000Y-97775000I0J100000D01*
G01*
G37*
G36*
G01*
X163425000Y-97125000D02*
X163425000Y-96925000D01*
G75*
G02*
X163525000Y-96825000I100000J0D01*
G01*
X164775000Y-96825000D01*
G75*
G02*
X164875000Y-96925000I0J-100000D01*
G01*
X164875000Y-97125000D01*
G75*
G02*
X164775000Y-97225000I-100000J0D01*
G01*
X163525000Y-97225000D01*
G75*
G02*
X163425000Y-97125000I0J100000D01*
G01*
G37*
G36*
G01*
X159125000Y-97125000D02*
X159125000Y-96925000D01*
G75*
G02*
X159225000Y-96825000I100000J0D01*
G01*
X160475000Y-96825000D01*
G75*
G02*
X160575000Y-96925000I0J-100000D01*
G01*
X160575000Y-97125000D01*
G75*
G02*
X160475000Y-97225000I-100000J0D01*
G01*
X159225000Y-97225000D01*
G75*
G02*
X159125000Y-97125000I0J100000D01*
G01*
G37*
G36*
G01*
X159125000Y-97775000D02*
X159125000Y-97575000D01*
G75*
G02*
X159225000Y-97475000I100000J0D01*
G01*
X160475000Y-97475000D01*
G75*
G02*
X160575000Y-97575000I0J-100000D01*
G01*
X160575000Y-97775000D01*
G75*
G02*
X160475000Y-97875000I-100000J0D01*
G01*
X159225000Y-97875000D01*
G75*
G02*
X159125000Y-97775000I0J100000D01*
G01*
G37*
G36*
G01*
X159125000Y-98425000D02*
X159125000Y-98225000D01*
G75*
G02*
X159225000Y-98125000I100000J0D01*
G01*
X160475000Y-98125000D01*
G75*
G02*
X160575000Y-98225000I0J-100000D01*
G01*
X160575000Y-98425000D01*
G75*
G02*
X160475000Y-98525000I-100000J0D01*
G01*
X159225000Y-98525000D01*
G75*
G02*
X159125000Y-98425000I0J100000D01*
G01*
G37*
G36*
G01*
X159125000Y-99075000D02*
X159125000Y-98875000D01*
G75*
G02*
X159225000Y-98775000I100000J0D01*
G01*
X160475000Y-98775000D01*
G75*
G02*
X160575000Y-98875000I0J-100000D01*
G01*
X160575000Y-99075000D01*
G75*
G02*
X160475000Y-99175000I-100000J0D01*
G01*
X159225000Y-99175000D01*
G75*
G02*
X159125000Y-99075000I0J100000D01*
G01*
G37*
%TD*%
%TO.C,R935*%
G36*
G01*
X153950000Y-98956250D02*
X153950000Y-98043750D01*
G75*
G02*
X154193750Y-97800000I243750J0D01*
G01*
X154681250Y-97800000D01*
G75*
G02*
X154925000Y-98043750I0J-243750D01*
G01*
X154925000Y-98956250D01*
G75*
G02*
X154681250Y-99200000I-243750J0D01*
G01*
X154193750Y-99200000D01*
G75*
G02*
X153950000Y-98956250I0J243750D01*
G01*
G37*
G36*
G01*
X152075000Y-98956250D02*
X152075000Y-98043750D01*
G75*
G02*
X152318750Y-97800000I243750J0D01*
G01*
X152806250Y-97800000D01*
G75*
G02*
X153050000Y-98043750I0J-243750D01*
G01*
X153050000Y-98956250D01*
G75*
G02*
X152806250Y-99200000I-243750J0D01*
G01*
X152318750Y-99200000D01*
G75*
G02*
X152075000Y-98956250I0J243750D01*
G01*
G37*
%TD*%
%TO.C,R934*%
G36*
G01*
X160512500Y-91456250D02*
X160512500Y-90543750D01*
G75*
G02*
X160756250Y-90300000I243750J0D01*
G01*
X161243750Y-90300000D01*
G75*
G02*
X161487500Y-90543750I0J-243750D01*
G01*
X161487500Y-91456250D01*
G75*
G02*
X161243750Y-91700000I-243750J0D01*
G01*
X160756250Y-91700000D01*
G75*
G02*
X160512500Y-91456250I0J243750D01*
G01*
G37*
G36*
G01*
X158637500Y-91456250D02*
X158637500Y-90543750D01*
G75*
G02*
X158881250Y-90300000I243750J0D01*
G01*
X159368750Y-90300000D01*
G75*
G02*
X159612500Y-90543750I0J-243750D01*
G01*
X159612500Y-91456250D01*
G75*
G02*
X159368750Y-91700000I-243750J0D01*
G01*
X158881250Y-91700000D01*
G75*
G02*
X158637500Y-91456250I0J243750D01*
G01*
G37*
%TD*%
%TO.C,R933*%
G36*
G01*
X146050000Y-91043750D02*
X146050000Y-91956250D01*
G75*
G02*
X145806250Y-92200000I-243750J0D01*
G01*
X145318750Y-92200000D01*
G75*
G02*
X145075000Y-91956250I0J243750D01*
G01*
X145075000Y-91043750D01*
G75*
G02*
X145318750Y-90800000I243750J0D01*
G01*
X145806250Y-90800000D01*
G75*
G02*
X146050000Y-91043750I0J-243750D01*
G01*
G37*
G36*
G01*
X147925000Y-91043750D02*
X147925000Y-91956250D01*
G75*
G02*
X147681250Y-92200000I-243750J0D01*
G01*
X147193750Y-92200000D01*
G75*
G02*
X146950000Y-91956250I0J243750D01*
G01*
X146950000Y-91043750D01*
G75*
G02*
X147193750Y-90800000I243750J0D01*
G01*
X147681250Y-90800000D01*
G75*
G02*
X147925000Y-91043750I0J-243750D01*
G01*
G37*
%TD*%
%TO.C,R932*%
G36*
G01*
X146950000Y-87456250D02*
X146950000Y-86543750D01*
G75*
G02*
X147193750Y-86300000I243750J0D01*
G01*
X147681250Y-86300000D01*
G75*
G02*
X147925000Y-86543750I0J-243750D01*
G01*
X147925000Y-87456250D01*
G75*
G02*
X147681250Y-87700000I-243750J0D01*
G01*
X147193750Y-87700000D01*
G75*
G02*
X146950000Y-87456250I0J243750D01*
G01*
G37*
G36*
G01*
X145075000Y-87456250D02*
X145075000Y-86543750D01*
G75*
G02*
X145318750Y-86300000I243750J0D01*
G01*
X145806250Y-86300000D01*
G75*
G02*
X146050000Y-86543750I0J-243750D01*
G01*
X146050000Y-87456250D01*
G75*
G02*
X145806250Y-87700000I-243750J0D01*
G01*
X145318750Y-87700000D01*
G75*
G02*
X145075000Y-87456250I0J243750D01*
G01*
G37*
%TD*%
%TO.C,R931*%
G36*
G01*
X160450000Y-82456250D02*
X160450000Y-81543750D01*
G75*
G02*
X160693750Y-81300000I243750J0D01*
G01*
X161181250Y-81300000D01*
G75*
G02*
X161425000Y-81543750I0J-243750D01*
G01*
X161425000Y-82456250D01*
G75*
G02*
X161181250Y-82700000I-243750J0D01*
G01*
X160693750Y-82700000D01*
G75*
G02*
X160450000Y-82456250I0J243750D01*
G01*
G37*
G36*
G01*
X158575000Y-82456250D02*
X158575000Y-81543750D01*
G75*
G02*
X158818750Y-81300000I243750J0D01*
G01*
X159306250Y-81300000D01*
G75*
G02*
X159550000Y-81543750I0J-243750D01*
G01*
X159550000Y-82456250D01*
G75*
G02*
X159306250Y-82700000I-243750J0D01*
G01*
X158818750Y-82700000D01*
G75*
G02*
X158575000Y-82456250I0J243750D01*
G01*
G37*
%TD*%
%TO.C,R930*%
G36*
G01*
X172450000Y-83456250D02*
X172450000Y-82543750D01*
G75*
G02*
X172693750Y-82300000I243750J0D01*
G01*
X173181250Y-82300000D01*
G75*
G02*
X173425000Y-82543750I0J-243750D01*
G01*
X173425000Y-83456250D01*
G75*
G02*
X173181250Y-83700000I-243750J0D01*
G01*
X172693750Y-83700000D01*
G75*
G02*
X172450000Y-83456250I0J243750D01*
G01*
G37*
G36*
G01*
X170575000Y-83456250D02*
X170575000Y-82543750D01*
G75*
G02*
X170818750Y-82300000I243750J0D01*
G01*
X171306250Y-82300000D01*
G75*
G02*
X171550000Y-82543750I0J-243750D01*
G01*
X171550000Y-83456250D01*
G75*
G02*
X171306250Y-83700000I-243750J0D01*
G01*
X170818750Y-83700000D01*
G75*
G02*
X170575000Y-83456250I0J243750D01*
G01*
G37*
%TD*%
%TO.C,R929*%
G36*
G01*
X176450000Y-83456250D02*
X176450000Y-82543750D01*
G75*
G02*
X176693750Y-82300000I243750J0D01*
G01*
X177181250Y-82300000D01*
G75*
G02*
X177425000Y-82543750I0J-243750D01*
G01*
X177425000Y-83456250D01*
G75*
G02*
X177181250Y-83700000I-243750J0D01*
G01*
X176693750Y-83700000D01*
G75*
G02*
X176450000Y-83456250I0J243750D01*
G01*
G37*
G36*
G01*
X174575000Y-83456250D02*
X174575000Y-82543750D01*
G75*
G02*
X174818750Y-82300000I243750J0D01*
G01*
X175306250Y-82300000D01*
G75*
G02*
X175550000Y-82543750I0J-243750D01*
G01*
X175550000Y-83456250D01*
G75*
G02*
X175306250Y-83700000I-243750J0D01*
G01*
X174818750Y-83700000D01*
G75*
G02*
X174575000Y-83456250I0J243750D01*
G01*
G37*
%TD*%
%TO.C,R928*%
G36*
G01*
X153950000Y-79956250D02*
X153950000Y-79043750D01*
G75*
G02*
X154193750Y-78800000I243750J0D01*
G01*
X154681250Y-78800000D01*
G75*
G02*
X154925000Y-79043750I0J-243750D01*
G01*
X154925000Y-79956250D01*
G75*
G02*
X154681250Y-80200000I-243750J0D01*
G01*
X154193750Y-80200000D01*
G75*
G02*
X153950000Y-79956250I0J243750D01*
G01*
G37*
G36*
G01*
X152075000Y-79956250D02*
X152075000Y-79043750D01*
G75*
G02*
X152318750Y-78800000I243750J0D01*
G01*
X152806250Y-78800000D01*
G75*
G02*
X153050000Y-79043750I0J-243750D01*
G01*
X153050000Y-79956250D01*
G75*
G02*
X152806250Y-80200000I-243750J0D01*
G01*
X152318750Y-80200000D01*
G75*
G02*
X152075000Y-79956250I0J243750D01*
G01*
G37*
%TD*%
D10*
%TO.C,Q5*%
X156650000Y-91200000D03*
X156650000Y-95800000D03*
X156650000Y-93500000D03*
D11*
X150350000Y-93500000D03*
%TD*%
D10*
%TO.C,Q4*%
X156650000Y-82200000D03*
X156650000Y-86800000D03*
X156650000Y-84500000D03*
D11*
X150350000Y-84500000D03*
%TD*%
%TO.C,C19*%
G36*
G01*
X176450000Y-80956250D02*
X176450000Y-80043750D01*
G75*
G02*
X176693750Y-79800000I243750J0D01*
G01*
X177181250Y-79800000D01*
G75*
G02*
X177425000Y-80043750I0J-243750D01*
G01*
X177425000Y-80956250D01*
G75*
G02*
X177181250Y-81200000I-243750J0D01*
G01*
X176693750Y-81200000D01*
G75*
G02*
X176450000Y-80956250I0J243750D01*
G01*
G37*
G36*
G01*
X174575000Y-80956250D02*
X174575000Y-80043750D01*
G75*
G02*
X174818750Y-79800000I243750J0D01*
G01*
X175306250Y-79800000D01*
G75*
G02*
X175550000Y-80043750I0J-243750D01*
G01*
X175550000Y-80956250D01*
G75*
G02*
X175306250Y-81200000I-243750J0D01*
G01*
X174818750Y-81200000D01*
G75*
G02*
X174575000Y-80956250I0J243750D01*
G01*
G37*
%TD*%
%TO.C,U2*%
G36*
G01*
X164500000Y-88445000D02*
X164500000Y-88745000D01*
G75*
G02*
X164350000Y-88895000I-150000J0D01*
G01*
X162700000Y-88895000D01*
G75*
G02*
X162550000Y-88745000I0J150000D01*
G01*
X162550000Y-88445000D01*
G75*
G02*
X162700000Y-88295000I150000J0D01*
G01*
X164350000Y-88295000D01*
G75*
G02*
X164500000Y-88445000I0J-150000D01*
G01*
G37*
G36*
G01*
X164500000Y-89715000D02*
X164500000Y-90015000D01*
G75*
G02*
X164350000Y-90165000I-150000J0D01*
G01*
X162700000Y-90165000D01*
G75*
G02*
X162550000Y-90015000I0J150000D01*
G01*
X162550000Y-89715000D01*
G75*
G02*
X162700000Y-89565000I150000J0D01*
G01*
X164350000Y-89565000D01*
G75*
G02*
X164500000Y-89715000I0J-150000D01*
G01*
G37*
G36*
G01*
X164500000Y-90985000D02*
X164500000Y-91285000D01*
G75*
G02*
X164350000Y-91435000I-150000J0D01*
G01*
X162700000Y-91435000D01*
G75*
G02*
X162550000Y-91285000I0J150000D01*
G01*
X162550000Y-90985000D01*
G75*
G02*
X162700000Y-90835000I150000J0D01*
G01*
X164350000Y-90835000D01*
G75*
G02*
X164500000Y-90985000I0J-150000D01*
G01*
G37*
G36*
G01*
X164500000Y-92255000D02*
X164500000Y-92555000D01*
G75*
G02*
X164350000Y-92705000I-150000J0D01*
G01*
X162700000Y-92705000D01*
G75*
G02*
X162550000Y-92555000I0J150000D01*
G01*
X162550000Y-92255000D01*
G75*
G02*
X162700000Y-92105000I150000J0D01*
G01*
X164350000Y-92105000D01*
G75*
G02*
X164500000Y-92255000I0J-150000D01*
G01*
G37*
G36*
G01*
X169450000Y-92255000D02*
X169450000Y-92555000D01*
G75*
G02*
X169300000Y-92705000I-150000J0D01*
G01*
X167650000Y-92705000D01*
G75*
G02*
X167500000Y-92555000I0J150000D01*
G01*
X167500000Y-92255000D01*
G75*
G02*
X167650000Y-92105000I150000J0D01*
G01*
X169300000Y-92105000D01*
G75*
G02*
X169450000Y-92255000I0J-150000D01*
G01*
G37*
G36*
G01*
X169450000Y-90985000D02*
X169450000Y-91285000D01*
G75*
G02*
X169300000Y-91435000I-150000J0D01*
G01*
X167650000Y-91435000D01*
G75*
G02*
X167500000Y-91285000I0J150000D01*
G01*
X167500000Y-90985000D01*
G75*
G02*
X167650000Y-90835000I150000J0D01*
G01*
X169300000Y-90835000D01*
G75*
G02*
X169450000Y-90985000I0J-150000D01*
G01*
G37*
G36*
G01*
X169450000Y-89715000D02*
X169450000Y-90015000D01*
G75*
G02*
X169300000Y-90165000I-150000J0D01*
G01*
X167650000Y-90165000D01*
G75*
G02*
X167500000Y-90015000I0J150000D01*
G01*
X167500000Y-89715000D01*
G75*
G02*
X167650000Y-89565000I150000J0D01*
G01*
X169300000Y-89565000D01*
G75*
G02*
X169450000Y-89715000I0J-150000D01*
G01*
G37*
G36*
G01*
X169450000Y-88445000D02*
X169450000Y-88745000D01*
G75*
G02*
X169300000Y-88895000I-150000J0D01*
G01*
X167650000Y-88895000D01*
G75*
G02*
X167500000Y-88745000I0J150000D01*
G01*
X167500000Y-88445000D01*
G75*
G02*
X167650000Y-88295000I150000J0D01*
G01*
X169300000Y-88295000D01*
G75*
G02*
X169450000Y-88445000I0J-150000D01*
G01*
G37*
%TD*%
%TO.C,U1*%
G36*
G01*
X164500000Y-79445000D02*
X164500000Y-79745000D01*
G75*
G02*
X164350000Y-79895000I-150000J0D01*
G01*
X162700000Y-79895000D01*
G75*
G02*
X162550000Y-79745000I0J150000D01*
G01*
X162550000Y-79445000D01*
G75*
G02*
X162700000Y-79295000I150000J0D01*
G01*
X164350000Y-79295000D01*
G75*
G02*
X164500000Y-79445000I0J-150000D01*
G01*
G37*
G36*
G01*
X164500000Y-80715000D02*
X164500000Y-81015000D01*
G75*
G02*
X164350000Y-81165000I-150000J0D01*
G01*
X162700000Y-81165000D01*
G75*
G02*
X162550000Y-81015000I0J150000D01*
G01*
X162550000Y-80715000D01*
G75*
G02*
X162700000Y-80565000I150000J0D01*
G01*
X164350000Y-80565000D01*
G75*
G02*
X164500000Y-80715000I0J-150000D01*
G01*
G37*
G36*
G01*
X164500000Y-81985000D02*
X164500000Y-82285000D01*
G75*
G02*
X164350000Y-82435000I-150000J0D01*
G01*
X162700000Y-82435000D01*
G75*
G02*
X162550000Y-82285000I0J150000D01*
G01*
X162550000Y-81985000D01*
G75*
G02*
X162700000Y-81835000I150000J0D01*
G01*
X164350000Y-81835000D01*
G75*
G02*
X164500000Y-81985000I0J-150000D01*
G01*
G37*
G36*
G01*
X164500000Y-83255000D02*
X164500000Y-83555000D01*
G75*
G02*
X164350000Y-83705000I-150000J0D01*
G01*
X162700000Y-83705000D01*
G75*
G02*
X162550000Y-83555000I0J150000D01*
G01*
X162550000Y-83255000D01*
G75*
G02*
X162700000Y-83105000I150000J0D01*
G01*
X164350000Y-83105000D01*
G75*
G02*
X164500000Y-83255000I0J-150000D01*
G01*
G37*
G36*
G01*
X169450000Y-83255000D02*
X169450000Y-83555000D01*
G75*
G02*
X169300000Y-83705000I-150000J0D01*
G01*
X167650000Y-83705000D01*
G75*
G02*
X167500000Y-83555000I0J150000D01*
G01*
X167500000Y-83255000D01*
G75*
G02*
X167650000Y-83105000I150000J0D01*
G01*
X169300000Y-83105000D01*
G75*
G02*
X169450000Y-83255000I0J-150000D01*
G01*
G37*
G36*
G01*
X169450000Y-81985000D02*
X169450000Y-82285000D01*
G75*
G02*
X169300000Y-82435000I-150000J0D01*
G01*
X167650000Y-82435000D01*
G75*
G02*
X167500000Y-82285000I0J150000D01*
G01*
X167500000Y-81985000D01*
G75*
G02*
X167650000Y-81835000I150000J0D01*
G01*
X169300000Y-81835000D01*
G75*
G02*
X169450000Y-81985000I0J-150000D01*
G01*
G37*
G36*
G01*
X169450000Y-80715000D02*
X169450000Y-81015000D01*
G75*
G02*
X169300000Y-81165000I-150000J0D01*
G01*
X167650000Y-81165000D01*
G75*
G02*
X167500000Y-81015000I0J150000D01*
G01*
X167500000Y-80715000D01*
G75*
G02*
X167650000Y-80565000I150000J0D01*
G01*
X169300000Y-80565000D01*
G75*
G02*
X169450000Y-80715000I0J-150000D01*
G01*
G37*
G36*
G01*
X169450000Y-79445000D02*
X169450000Y-79745000D01*
G75*
G02*
X169300000Y-79895000I-150000J0D01*
G01*
X167650000Y-79895000D01*
G75*
G02*
X167500000Y-79745000I0J150000D01*
G01*
X167500000Y-79445000D01*
G75*
G02*
X167650000Y-79295000I150000J0D01*
G01*
X169300000Y-79295000D01*
G75*
G02*
X169450000Y-79445000I0J-150000D01*
G01*
G37*
%TD*%
M02*
