%TF.GenerationSoftware,KiCad,Pcbnew,(5.1.6)-1*%
%TF.CreationDate,2020-11-02T11:11:50+01:00*%
%TF.ProjectId,ltz10v,6c747a31-3076-42e6-9b69-6361645f7063,rev?*%
%TF.SameCoordinates,Original*%
%TF.FileFunction,Soldermask,Bot*%
%TF.FilePolarity,Negative*%
%FSLAX46Y46*%
G04 Gerber Fmt 4.6, Leading zero omitted, Abs format (unit mm)*
G04 Created by KiCad (PCBNEW (5.1.6)-1) date 2020-11-02 11:11:50*
%MOMM*%
%LPD*%
G01*
G04 APERTURE LIST*
%ADD10C,2.098980*%
%ADD11R,1.780000X1.980000*%
%ADD12R,2.100000X1.600000*%
%ADD13R,2.100000X3.900000*%
%ADD14C,4.100500*%
%ADD15C,3.300000*%
%ADD16R,1.800000X1.800000*%
%ADD17O,1.800000X1.800000*%
%ADD18O,2.005000X2.100000*%
%ADD19R,2.005000X2.100000*%
G04 APERTURE END LIST*
%TO.C,R940*%
G36*
G01*
X176025000Y-101434849D02*
X176025000Y-96565151D01*
G75*
G02*
X176290151Y-96300000I265151J0D01*
G01*
X177509849Y-96300000D01*
G75*
G02*
X177775000Y-96565151I0J-265151D01*
G01*
X177775000Y-101434849D01*
G75*
G02*
X177509849Y-101700000I-265151J0D01*
G01*
X176290151Y-101700000D01*
G75*
G02*
X176025000Y-101434849I0J265151D01*
G01*
G37*
G36*
G01*
X166225000Y-101434849D02*
X166225000Y-96565151D01*
G75*
G02*
X166490151Y-96300000I265151J0D01*
G01*
X167709849Y-96300000D01*
G75*
G02*
X167975000Y-96565151I0J-265151D01*
G01*
X167975000Y-101434849D01*
G75*
G02*
X167709849Y-101700000I-265151J0D01*
G01*
X166490151Y-101700000D01*
G75*
G02*
X166225000Y-101434849I0J265151D01*
G01*
G37*
%TD*%
%TO.C,R942*%
G36*
G01*
X172400000Y-92481250D02*
X172400000Y-91518750D01*
G75*
G02*
X172668750Y-91250000I268750J0D01*
G01*
X173206250Y-91250000D01*
G75*
G02*
X173475000Y-91518750I0J-268750D01*
G01*
X173475000Y-92481250D01*
G75*
G02*
X173206250Y-92750000I-268750J0D01*
G01*
X172668750Y-92750000D01*
G75*
G02*
X172400000Y-92481250I0J268750D01*
G01*
G37*
G36*
G01*
X170525000Y-92481250D02*
X170525000Y-91518750D01*
G75*
G02*
X170793750Y-91250000I268750J0D01*
G01*
X171331250Y-91250000D01*
G75*
G02*
X171600000Y-91518750I0J-268750D01*
G01*
X171600000Y-92481250D01*
G75*
G02*
X171331250Y-92750000I-268750J0D01*
G01*
X170793750Y-92750000D01*
G75*
G02*
X170525000Y-92481250I0J268750D01*
G01*
G37*
%TD*%
%TO.C,R941*%
G36*
G01*
X176400000Y-92481250D02*
X176400000Y-91518750D01*
G75*
G02*
X176668750Y-91250000I268750J0D01*
G01*
X177206250Y-91250000D01*
G75*
G02*
X177475000Y-91518750I0J-268750D01*
G01*
X177475000Y-92481250D01*
G75*
G02*
X177206250Y-92750000I-268750J0D01*
G01*
X176668750Y-92750000D01*
G75*
G02*
X176400000Y-92481250I0J268750D01*
G01*
G37*
G36*
G01*
X174525000Y-92481250D02*
X174525000Y-91518750D01*
G75*
G02*
X174793750Y-91250000I268750J0D01*
G01*
X175331250Y-91250000D01*
G75*
G02*
X175600000Y-91518750I0J-268750D01*
G01*
X175600000Y-92481250D01*
G75*
G02*
X175331250Y-92750000I-268750J0D01*
G01*
X174793750Y-92750000D01*
G75*
G02*
X174525000Y-92481250I0J268750D01*
G01*
G37*
%TD*%
%TO.C,R939*%
G36*
G01*
X143481250Y-88600000D02*
X142518750Y-88600000D01*
G75*
G02*
X142250000Y-88331250I0J268750D01*
G01*
X142250000Y-87793750D01*
G75*
G02*
X142518750Y-87525000I268750J0D01*
G01*
X143481250Y-87525000D01*
G75*
G02*
X143750000Y-87793750I0J-268750D01*
G01*
X143750000Y-88331250D01*
G75*
G02*
X143481250Y-88600000I-268750J0D01*
G01*
G37*
G36*
G01*
X143481250Y-90475000D02*
X142518750Y-90475000D01*
G75*
G02*
X142250000Y-90206250I0J268750D01*
G01*
X142250000Y-89668750D01*
G75*
G02*
X142518750Y-89400000I268750J0D01*
G01*
X143481250Y-89400000D01*
G75*
G02*
X143750000Y-89668750I0J-268750D01*
G01*
X143750000Y-90206250D01*
G75*
G02*
X143481250Y-90475000I-268750J0D01*
G01*
G37*
%TD*%
%TO.C,R938*%
G36*
G01*
X163100000Y-101018750D02*
X163100000Y-101981250D01*
G75*
G02*
X162831250Y-102250000I-268750J0D01*
G01*
X162293750Y-102250000D01*
G75*
G02*
X162025000Y-101981250I0J268750D01*
G01*
X162025000Y-101018750D01*
G75*
G02*
X162293750Y-100750000I268750J0D01*
G01*
X162831250Y-100750000D01*
G75*
G02*
X163100000Y-101018750I0J-268750D01*
G01*
G37*
G36*
G01*
X164975000Y-101018750D02*
X164975000Y-101981250D01*
G75*
G02*
X164706250Y-102250000I-268750J0D01*
G01*
X164168750Y-102250000D01*
G75*
G02*
X163900000Y-101981250I0J268750D01*
G01*
X163900000Y-101018750D01*
G75*
G02*
X164168750Y-100750000I268750J0D01*
G01*
X164706250Y-100750000D01*
G75*
G02*
X164975000Y-101018750I0J-268750D01*
G01*
G37*
%TD*%
D10*
%TO.C,J12*%
X142500000Y-67500000D03*
%TD*%
%TO.C,J11*%
X136500000Y-67500000D03*
%TD*%
%TO.C,J10*%
X148500000Y-67500000D03*
%TD*%
%TO.C,J9*%
X154500000Y-67500000D03*
%TD*%
%TO.C,C33*%
G36*
G01*
X166400000Y-86981250D02*
X166400000Y-86018750D01*
G75*
G02*
X166668750Y-85750000I268750J0D01*
G01*
X167206250Y-85750000D01*
G75*
G02*
X167475000Y-86018750I0J-268750D01*
G01*
X167475000Y-86981250D01*
G75*
G02*
X167206250Y-87250000I-268750J0D01*
G01*
X166668750Y-87250000D01*
G75*
G02*
X166400000Y-86981250I0J268750D01*
G01*
G37*
G36*
G01*
X164525000Y-86981250D02*
X164525000Y-86018750D01*
G75*
G02*
X164793750Y-85750000I268750J0D01*
G01*
X165331250Y-85750000D01*
G75*
G02*
X165600000Y-86018750I0J-268750D01*
G01*
X165600000Y-86981250D01*
G75*
G02*
X165331250Y-87250000I-268750J0D01*
G01*
X164793750Y-87250000D01*
G75*
G02*
X164525000Y-86981250I0J268750D01*
G01*
G37*
%TD*%
%TO.C,C32*%
G36*
G01*
X153100000Y-103018750D02*
X153100000Y-103981250D01*
G75*
G02*
X152831250Y-104250000I-268750J0D01*
G01*
X152293750Y-104250000D01*
G75*
G02*
X152025000Y-103981250I0J268750D01*
G01*
X152025000Y-103018750D01*
G75*
G02*
X152293750Y-102750000I268750J0D01*
G01*
X152831250Y-102750000D01*
G75*
G02*
X153100000Y-103018750I0J-268750D01*
G01*
G37*
G36*
G01*
X154975000Y-103018750D02*
X154975000Y-103981250D01*
G75*
G02*
X154706250Y-104250000I-268750J0D01*
G01*
X154168750Y-104250000D01*
G75*
G02*
X153900000Y-103981250I0J268750D01*
G01*
X153900000Y-103018750D01*
G75*
G02*
X154168750Y-102750000I268750J0D01*
G01*
X154706250Y-102750000D01*
G75*
G02*
X154975000Y-103018750I0J-268750D01*
G01*
G37*
%TD*%
%TO.C,C31*%
G36*
G01*
X153100000Y-100518750D02*
X153100000Y-101481250D01*
G75*
G02*
X152831250Y-101750000I-268750J0D01*
G01*
X152293750Y-101750000D01*
G75*
G02*
X152025000Y-101481250I0J268750D01*
G01*
X152025000Y-100518750D01*
G75*
G02*
X152293750Y-100250000I268750J0D01*
G01*
X152831250Y-100250000D01*
G75*
G02*
X153100000Y-100518750I0J-268750D01*
G01*
G37*
G36*
G01*
X154975000Y-100518750D02*
X154975000Y-101481250D01*
G75*
G02*
X154706250Y-101750000I-268750J0D01*
G01*
X154168750Y-101750000D01*
G75*
G02*
X153900000Y-101481250I0J268750D01*
G01*
X153900000Y-100518750D01*
G75*
G02*
X154168750Y-100250000I268750J0D01*
G01*
X154706250Y-100250000D01*
G75*
G02*
X154975000Y-100518750I0J-268750D01*
G01*
G37*
%TD*%
%TO.C,C30*%
G36*
G01*
X176400000Y-89981250D02*
X176400000Y-89018750D01*
G75*
G02*
X176668750Y-88750000I268750J0D01*
G01*
X177206250Y-88750000D01*
G75*
G02*
X177475000Y-89018750I0J-268750D01*
G01*
X177475000Y-89981250D01*
G75*
G02*
X177206250Y-90250000I-268750J0D01*
G01*
X176668750Y-90250000D01*
G75*
G02*
X176400000Y-89981250I0J268750D01*
G01*
G37*
G36*
G01*
X174525000Y-89981250D02*
X174525000Y-89018750D01*
G75*
G02*
X174793750Y-88750000I268750J0D01*
G01*
X175331250Y-88750000D01*
G75*
G02*
X175600000Y-89018750I0J-268750D01*
G01*
X175600000Y-89981250D01*
G75*
G02*
X175331250Y-90250000I-268750J0D01*
G01*
X174793750Y-90250000D01*
G75*
G02*
X174525000Y-89981250I0J268750D01*
G01*
G37*
%TD*%
%TO.C,C29*%
G36*
G01*
X166400000Y-94981250D02*
X166400000Y-94018750D01*
G75*
G02*
X166668750Y-93750000I268750J0D01*
G01*
X167206250Y-93750000D01*
G75*
G02*
X167475000Y-94018750I0J-268750D01*
G01*
X167475000Y-94981250D01*
G75*
G02*
X167206250Y-95250000I-268750J0D01*
G01*
X166668750Y-95250000D01*
G75*
G02*
X166400000Y-94981250I0J268750D01*
G01*
G37*
G36*
G01*
X164525000Y-94981250D02*
X164525000Y-94018750D01*
G75*
G02*
X164793750Y-93750000I268750J0D01*
G01*
X165331250Y-93750000D01*
G75*
G02*
X165600000Y-94018750I0J-268750D01*
G01*
X165600000Y-94981250D01*
G75*
G02*
X165331250Y-95250000I-268750J0D01*
G01*
X164793750Y-95250000D01*
G75*
G02*
X164525000Y-94981250I0J268750D01*
G01*
G37*
%TD*%
%TO.C,C28*%
G36*
G01*
X162400000Y-86981250D02*
X162400000Y-86018750D01*
G75*
G02*
X162668750Y-85750000I268750J0D01*
G01*
X163206250Y-85750000D01*
G75*
G02*
X163475000Y-86018750I0J-268750D01*
G01*
X163475000Y-86981250D01*
G75*
G02*
X163206250Y-87250000I-268750J0D01*
G01*
X162668750Y-87250000D01*
G75*
G02*
X162400000Y-86981250I0J268750D01*
G01*
G37*
G36*
G01*
X160525000Y-86981250D02*
X160525000Y-86018750D01*
G75*
G02*
X160793750Y-85750000I268750J0D01*
G01*
X161331250Y-85750000D01*
G75*
G02*
X161600000Y-86018750I0J-268750D01*
G01*
X161600000Y-86981250D01*
G75*
G02*
X161331250Y-87250000I-268750J0D01*
G01*
X160793750Y-87250000D01*
G75*
G02*
X160525000Y-86981250I0J268750D01*
G01*
G37*
%TD*%
%TO.C,C27*%
G36*
G01*
X153100000Y-74018750D02*
X153100000Y-74981250D01*
G75*
G02*
X152831250Y-75250000I-268750J0D01*
G01*
X152293750Y-75250000D01*
G75*
G02*
X152025000Y-74981250I0J268750D01*
G01*
X152025000Y-74018750D01*
G75*
G02*
X152293750Y-73750000I268750J0D01*
G01*
X152831250Y-73750000D01*
G75*
G02*
X153100000Y-74018750I0J-268750D01*
G01*
G37*
G36*
G01*
X154975000Y-74018750D02*
X154975000Y-74981250D01*
G75*
G02*
X154706250Y-75250000I-268750J0D01*
G01*
X154168750Y-75250000D01*
G75*
G02*
X153900000Y-74981250I0J268750D01*
G01*
X153900000Y-74018750D01*
G75*
G02*
X154168750Y-73750000I268750J0D01*
G01*
X154706250Y-73750000D01*
G75*
G02*
X154975000Y-74018750I0J-268750D01*
G01*
G37*
%TD*%
%TO.C,C26*%
G36*
G01*
X153100000Y-76518750D02*
X153100000Y-77481250D01*
G75*
G02*
X152831250Y-77750000I-268750J0D01*
G01*
X152293750Y-77750000D01*
G75*
G02*
X152025000Y-77481250I0J268750D01*
G01*
X152025000Y-76518750D01*
G75*
G02*
X152293750Y-76250000I268750J0D01*
G01*
X152831250Y-76250000D01*
G75*
G02*
X153100000Y-76518750I0J-268750D01*
G01*
G37*
G36*
G01*
X154975000Y-76518750D02*
X154975000Y-77481250D01*
G75*
G02*
X154706250Y-77750000I-268750J0D01*
G01*
X154168750Y-77750000D01*
G75*
G02*
X153900000Y-77481250I0J268750D01*
G01*
X153900000Y-76518750D01*
G75*
G02*
X154168750Y-76250000I268750J0D01*
G01*
X154706250Y-76250000D01*
G75*
G02*
X154975000Y-76518750I0J-268750D01*
G01*
G37*
%TD*%
%TO.C,C25*%
G36*
G01*
X166400000Y-77981250D02*
X166400000Y-77018750D01*
G75*
G02*
X166668750Y-76750000I268750J0D01*
G01*
X167206250Y-76750000D01*
G75*
G02*
X167475000Y-77018750I0J-268750D01*
G01*
X167475000Y-77981250D01*
G75*
G02*
X167206250Y-78250000I-268750J0D01*
G01*
X166668750Y-78250000D01*
G75*
G02*
X166400000Y-77981250I0J268750D01*
G01*
G37*
G36*
G01*
X164525000Y-77981250D02*
X164525000Y-77018750D01*
G75*
G02*
X164793750Y-76750000I268750J0D01*
G01*
X165331250Y-76750000D01*
G75*
G02*
X165600000Y-77018750I0J-268750D01*
G01*
X165600000Y-77981250D01*
G75*
G02*
X165331250Y-78250000I-268750J0D01*
G01*
X164793750Y-78250000D01*
G75*
G02*
X164525000Y-77981250I0J268750D01*
G01*
G37*
%TD*%
D11*
%TO.C,RN1*%
X162000000Y-98000000D03*
G36*
G01*
X163375000Y-99100000D02*
X163375000Y-98850000D01*
G75*
G02*
X163500000Y-98725000I125000J0D01*
G01*
X164800000Y-98725000D01*
G75*
G02*
X164925000Y-98850000I0J-125000D01*
G01*
X164925000Y-99100000D01*
G75*
G02*
X164800000Y-99225000I-125000J0D01*
G01*
X163500000Y-99225000D01*
G75*
G02*
X163375000Y-99100000I0J125000D01*
G01*
G37*
G36*
G01*
X163375000Y-98450000D02*
X163375000Y-98200000D01*
G75*
G02*
X163500000Y-98075000I125000J0D01*
G01*
X164800000Y-98075000D01*
G75*
G02*
X164925000Y-98200000I0J-125000D01*
G01*
X164925000Y-98450000D01*
G75*
G02*
X164800000Y-98575000I-125000J0D01*
G01*
X163500000Y-98575000D01*
G75*
G02*
X163375000Y-98450000I0J125000D01*
G01*
G37*
G36*
G01*
X163375000Y-97800000D02*
X163375000Y-97550000D01*
G75*
G02*
X163500000Y-97425000I125000J0D01*
G01*
X164800000Y-97425000D01*
G75*
G02*
X164925000Y-97550000I0J-125000D01*
G01*
X164925000Y-97800000D01*
G75*
G02*
X164800000Y-97925000I-125000J0D01*
G01*
X163500000Y-97925000D01*
G75*
G02*
X163375000Y-97800000I0J125000D01*
G01*
G37*
G36*
G01*
X163375000Y-97150000D02*
X163375000Y-96900000D01*
G75*
G02*
X163500000Y-96775000I125000J0D01*
G01*
X164800000Y-96775000D01*
G75*
G02*
X164925000Y-96900000I0J-125000D01*
G01*
X164925000Y-97150000D01*
G75*
G02*
X164800000Y-97275000I-125000J0D01*
G01*
X163500000Y-97275000D01*
G75*
G02*
X163375000Y-97150000I0J125000D01*
G01*
G37*
G36*
G01*
X159075000Y-97150000D02*
X159075000Y-96900000D01*
G75*
G02*
X159200000Y-96775000I125000J0D01*
G01*
X160500000Y-96775000D01*
G75*
G02*
X160625000Y-96900000I0J-125000D01*
G01*
X160625000Y-97150000D01*
G75*
G02*
X160500000Y-97275000I-125000J0D01*
G01*
X159200000Y-97275000D01*
G75*
G02*
X159075000Y-97150000I0J125000D01*
G01*
G37*
G36*
G01*
X159075000Y-97800000D02*
X159075000Y-97550000D01*
G75*
G02*
X159200000Y-97425000I125000J0D01*
G01*
X160500000Y-97425000D01*
G75*
G02*
X160625000Y-97550000I0J-125000D01*
G01*
X160625000Y-97800000D01*
G75*
G02*
X160500000Y-97925000I-125000J0D01*
G01*
X159200000Y-97925000D01*
G75*
G02*
X159075000Y-97800000I0J125000D01*
G01*
G37*
G36*
G01*
X159075000Y-98450000D02*
X159075000Y-98200000D01*
G75*
G02*
X159200000Y-98075000I125000J0D01*
G01*
X160500000Y-98075000D01*
G75*
G02*
X160625000Y-98200000I0J-125000D01*
G01*
X160625000Y-98450000D01*
G75*
G02*
X160500000Y-98575000I-125000J0D01*
G01*
X159200000Y-98575000D01*
G75*
G02*
X159075000Y-98450000I0J125000D01*
G01*
G37*
G36*
G01*
X159075000Y-99100000D02*
X159075000Y-98850000D01*
G75*
G02*
X159200000Y-98725000I125000J0D01*
G01*
X160500000Y-98725000D01*
G75*
G02*
X160625000Y-98850000I0J-125000D01*
G01*
X160625000Y-99100000D01*
G75*
G02*
X160500000Y-99225000I-125000J0D01*
G01*
X159200000Y-99225000D01*
G75*
G02*
X159075000Y-99100000I0J125000D01*
G01*
G37*
%TD*%
%TO.C,R935*%
G36*
G01*
X153900000Y-98981250D02*
X153900000Y-98018750D01*
G75*
G02*
X154168750Y-97750000I268750J0D01*
G01*
X154706250Y-97750000D01*
G75*
G02*
X154975000Y-98018750I0J-268750D01*
G01*
X154975000Y-98981250D01*
G75*
G02*
X154706250Y-99250000I-268750J0D01*
G01*
X154168750Y-99250000D01*
G75*
G02*
X153900000Y-98981250I0J268750D01*
G01*
G37*
G36*
G01*
X152025000Y-98981250D02*
X152025000Y-98018750D01*
G75*
G02*
X152293750Y-97750000I268750J0D01*
G01*
X152831250Y-97750000D01*
G75*
G02*
X153100000Y-98018750I0J-268750D01*
G01*
X153100000Y-98981250D01*
G75*
G02*
X152831250Y-99250000I-268750J0D01*
G01*
X152293750Y-99250000D01*
G75*
G02*
X152025000Y-98981250I0J268750D01*
G01*
G37*
%TD*%
%TO.C,R934*%
G36*
G01*
X160462500Y-91481250D02*
X160462500Y-90518750D01*
G75*
G02*
X160731250Y-90250000I268750J0D01*
G01*
X161268750Y-90250000D01*
G75*
G02*
X161537500Y-90518750I0J-268750D01*
G01*
X161537500Y-91481250D01*
G75*
G02*
X161268750Y-91750000I-268750J0D01*
G01*
X160731250Y-91750000D01*
G75*
G02*
X160462500Y-91481250I0J268750D01*
G01*
G37*
G36*
G01*
X158587500Y-91481250D02*
X158587500Y-90518750D01*
G75*
G02*
X158856250Y-90250000I268750J0D01*
G01*
X159393750Y-90250000D01*
G75*
G02*
X159662500Y-90518750I0J-268750D01*
G01*
X159662500Y-91481250D01*
G75*
G02*
X159393750Y-91750000I-268750J0D01*
G01*
X158856250Y-91750000D01*
G75*
G02*
X158587500Y-91481250I0J268750D01*
G01*
G37*
%TD*%
%TO.C,R933*%
G36*
G01*
X146100000Y-91018750D02*
X146100000Y-91981250D01*
G75*
G02*
X145831250Y-92250000I-268750J0D01*
G01*
X145293750Y-92250000D01*
G75*
G02*
X145025000Y-91981250I0J268750D01*
G01*
X145025000Y-91018750D01*
G75*
G02*
X145293750Y-90750000I268750J0D01*
G01*
X145831250Y-90750000D01*
G75*
G02*
X146100000Y-91018750I0J-268750D01*
G01*
G37*
G36*
G01*
X147975000Y-91018750D02*
X147975000Y-91981250D01*
G75*
G02*
X147706250Y-92250000I-268750J0D01*
G01*
X147168750Y-92250000D01*
G75*
G02*
X146900000Y-91981250I0J268750D01*
G01*
X146900000Y-91018750D01*
G75*
G02*
X147168750Y-90750000I268750J0D01*
G01*
X147706250Y-90750000D01*
G75*
G02*
X147975000Y-91018750I0J-268750D01*
G01*
G37*
%TD*%
%TO.C,R932*%
G36*
G01*
X146900000Y-87481250D02*
X146900000Y-86518750D01*
G75*
G02*
X147168750Y-86250000I268750J0D01*
G01*
X147706250Y-86250000D01*
G75*
G02*
X147975000Y-86518750I0J-268750D01*
G01*
X147975000Y-87481250D01*
G75*
G02*
X147706250Y-87750000I-268750J0D01*
G01*
X147168750Y-87750000D01*
G75*
G02*
X146900000Y-87481250I0J268750D01*
G01*
G37*
G36*
G01*
X145025000Y-87481250D02*
X145025000Y-86518750D01*
G75*
G02*
X145293750Y-86250000I268750J0D01*
G01*
X145831250Y-86250000D01*
G75*
G02*
X146100000Y-86518750I0J-268750D01*
G01*
X146100000Y-87481250D01*
G75*
G02*
X145831250Y-87750000I-268750J0D01*
G01*
X145293750Y-87750000D01*
G75*
G02*
X145025000Y-87481250I0J268750D01*
G01*
G37*
%TD*%
%TO.C,R931*%
G36*
G01*
X160400000Y-82481250D02*
X160400000Y-81518750D01*
G75*
G02*
X160668750Y-81250000I268750J0D01*
G01*
X161206250Y-81250000D01*
G75*
G02*
X161475000Y-81518750I0J-268750D01*
G01*
X161475000Y-82481250D01*
G75*
G02*
X161206250Y-82750000I-268750J0D01*
G01*
X160668750Y-82750000D01*
G75*
G02*
X160400000Y-82481250I0J268750D01*
G01*
G37*
G36*
G01*
X158525000Y-82481250D02*
X158525000Y-81518750D01*
G75*
G02*
X158793750Y-81250000I268750J0D01*
G01*
X159331250Y-81250000D01*
G75*
G02*
X159600000Y-81518750I0J-268750D01*
G01*
X159600000Y-82481250D01*
G75*
G02*
X159331250Y-82750000I-268750J0D01*
G01*
X158793750Y-82750000D01*
G75*
G02*
X158525000Y-82481250I0J268750D01*
G01*
G37*
%TD*%
%TO.C,R930*%
G36*
G01*
X172400000Y-83481250D02*
X172400000Y-82518750D01*
G75*
G02*
X172668750Y-82250000I268750J0D01*
G01*
X173206250Y-82250000D01*
G75*
G02*
X173475000Y-82518750I0J-268750D01*
G01*
X173475000Y-83481250D01*
G75*
G02*
X173206250Y-83750000I-268750J0D01*
G01*
X172668750Y-83750000D01*
G75*
G02*
X172400000Y-83481250I0J268750D01*
G01*
G37*
G36*
G01*
X170525000Y-83481250D02*
X170525000Y-82518750D01*
G75*
G02*
X170793750Y-82250000I268750J0D01*
G01*
X171331250Y-82250000D01*
G75*
G02*
X171600000Y-82518750I0J-268750D01*
G01*
X171600000Y-83481250D01*
G75*
G02*
X171331250Y-83750000I-268750J0D01*
G01*
X170793750Y-83750000D01*
G75*
G02*
X170525000Y-83481250I0J268750D01*
G01*
G37*
%TD*%
%TO.C,R929*%
G36*
G01*
X176400000Y-83481250D02*
X176400000Y-82518750D01*
G75*
G02*
X176668750Y-82250000I268750J0D01*
G01*
X177206250Y-82250000D01*
G75*
G02*
X177475000Y-82518750I0J-268750D01*
G01*
X177475000Y-83481250D01*
G75*
G02*
X177206250Y-83750000I-268750J0D01*
G01*
X176668750Y-83750000D01*
G75*
G02*
X176400000Y-83481250I0J268750D01*
G01*
G37*
G36*
G01*
X174525000Y-83481250D02*
X174525000Y-82518750D01*
G75*
G02*
X174793750Y-82250000I268750J0D01*
G01*
X175331250Y-82250000D01*
G75*
G02*
X175600000Y-82518750I0J-268750D01*
G01*
X175600000Y-83481250D01*
G75*
G02*
X175331250Y-83750000I-268750J0D01*
G01*
X174793750Y-83750000D01*
G75*
G02*
X174525000Y-83481250I0J268750D01*
G01*
G37*
%TD*%
%TO.C,R928*%
G36*
G01*
X153900000Y-79981250D02*
X153900000Y-79018750D01*
G75*
G02*
X154168750Y-78750000I268750J0D01*
G01*
X154706250Y-78750000D01*
G75*
G02*
X154975000Y-79018750I0J-268750D01*
G01*
X154975000Y-79981250D01*
G75*
G02*
X154706250Y-80250000I-268750J0D01*
G01*
X154168750Y-80250000D01*
G75*
G02*
X153900000Y-79981250I0J268750D01*
G01*
G37*
G36*
G01*
X152025000Y-79981250D02*
X152025000Y-79018750D01*
G75*
G02*
X152293750Y-78750000I268750J0D01*
G01*
X152831250Y-78750000D01*
G75*
G02*
X153100000Y-79018750I0J-268750D01*
G01*
X153100000Y-79981250D01*
G75*
G02*
X152831250Y-80250000I-268750J0D01*
G01*
X152293750Y-80250000D01*
G75*
G02*
X152025000Y-79981250I0J268750D01*
G01*
G37*
%TD*%
D12*
%TO.C,Q5*%
X156650000Y-91200000D03*
X156650000Y-95800000D03*
X156650000Y-93500000D03*
D13*
X150350000Y-93500000D03*
%TD*%
D12*
%TO.C,Q4*%
X156650000Y-82200000D03*
X156650000Y-86800000D03*
X156650000Y-84500000D03*
D13*
X150350000Y-84500000D03*
%TD*%
%TO.C,C19*%
G36*
G01*
X176400000Y-80981250D02*
X176400000Y-80018750D01*
G75*
G02*
X176668750Y-79750000I268750J0D01*
G01*
X177206250Y-79750000D01*
G75*
G02*
X177475000Y-80018750I0J-268750D01*
G01*
X177475000Y-80981250D01*
G75*
G02*
X177206250Y-81250000I-268750J0D01*
G01*
X176668750Y-81250000D01*
G75*
G02*
X176400000Y-80981250I0J268750D01*
G01*
G37*
G36*
G01*
X174525000Y-80981250D02*
X174525000Y-80018750D01*
G75*
G02*
X174793750Y-79750000I268750J0D01*
G01*
X175331250Y-79750000D01*
G75*
G02*
X175600000Y-80018750I0J-268750D01*
G01*
X175600000Y-80981250D01*
G75*
G02*
X175331250Y-81250000I-268750J0D01*
G01*
X174793750Y-81250000D01*
G75*
G02*
X174525000Y-80981250I0J268750D01*
G01*
G37*
%TD*%
D14*
%TO.C,J8*%
X185000000Y-116000000D03*
%TD*%
%TO.C,J3*%
X190000000Y-116000000D03*
%TD*%
%TO.C,U2*%
G36*
G01*
X164550000Y-88420000D02*
X164550000Y-88770000D01*
G75*
G02*
X164375000Y-88945000I-175000J0D01*
G01*
X162675000Y-88945000D01*
G75*
G02*
X162500000Y-88770000I0J175000D01*
G01*
X162500000Y-88420000D01*
G75*
G02*
X162675000Y-88245000I175000J0D01*
G01*
X164375000Y-88245000D01*
G75*
G02*
X164550000Y-88420000I0J-175000D01*
G01*
G37*
G36*
G01*
X164550000Y-89690000D02*
X164550000Y-90040000D01*
G75*
G02*
X164375000Y-90215000I-175000J0D01*
G01*
X162675000Y-90215000D01*
G75*
G02*
X162500000Y-90040000I0J175000D01*
G01*
X162500000Y-89690000D01*
G75*
G02*
X162675000Y-89515000I175000J0D01*
G01*
X164375000Y-89515000D01*
G75*
G02*
X164550000Y-89690000I0J-175000D01*
G01*
G37*
G36*
G01*
X164550000Y-90960000D02*
X164550000Y-91310000D01*
G75*
G02*
X164375000Y-91485000I-175000J0D01*
G01*
X162675000Y-91485000D01*
G75*
G02*
X162500000Y-91310000I0J175000D01*
G01*
X162500000Y-90960000D01*
G75*
G02*
X162675000Y-90785000I175000J0D01*
G01*
X164375000Y-90785000D01*
G75*
G02*
X164550000Y-90960000I0J-175000D01*
G01*
G37*
G36*
G01*
X164550000Y-92230000D02*
X164550000Y-92580000D01*
G75*
G02*
X164375000Y-92755000I-175000J0D01*
G01*
X162675000Y-92755000D01*
G75*
G02*
X162500000Y-92580000I0J175000D01*
G01*
X162500000Y-92230000D01*
G75*
G02*
X162675000Y-92055000I175000J0D01*
G01*
X164375000Y-92055000D01*
G75*
G02*
X164550000Y-92230000I0J-175000D01*
G01*
G37*
G36*
G01*
X169500000Y-92230000D02*
X169500000Y-92580000D01*
G75*
G02*
X169325000Y-92755000I-175000J0D01*
G01*
X167625000Y-92755000D01*
G75*
G02*
X167450000Y-92580000I0J175000D01*
G01*
X167450000Y-92230000D01*
G75*
G02*
X167625000Y-92055000I175000J0D01*
G01*
X169325000Y-92055000D01*
G75*
G02*
X169500000Y-92230000I0J-175000D01*
G01*
G37*
G36*
G01*
X169500000Y-90960000D02*
X169500000Y-91310000D01*
G75*
G02*
X169325000Y-91485000I-175000J0D01*
G01*
X167625000Y-91485000D01*
G75*
G02*
X167450000Y-91310000I0J175000D01*
G01*
X167450000Y-90960000D01*
G75*
G02*
X167625000Y-90785000I175000J0D01*
G01*
X169325000Y-90785000D01*
G75*
G02*
X169500000Y-90960000I0J-175000D01*
G01*
G37*
G36*
G01*
X169500000Y-89690000D02*
X169500000Y-90040000D01*
G75*
G02*
X169325000Y-90215000I-175000J0D01*
G01*
X167625000Y-90215000D01*
G75*
G02*
X167450000Y-90040000I0J175000D01*
G01*
X167450000Y-89690000D01*
G75*
G02*
X167625000Y-89515000I175000J0D01*
G01*
X169325000Y-89515000D01*
G75*
G02*
X169500000Y-89690000I0J-175000D01*
G01*
G37*
G36*
G01*
X169500000Y-88420000D02*
X169500000Y-88770000D01*
G75*
G02*
X169325000Y-88945000I-175000J0D01*
G01*
X167625000Y-88945000D01*
G75*
G02*
X167450000Y-88770000I0J175000D01*
G01*
X167450000Y-88420000D01*
G75*
G02*
X167625000Y-88245000I175000J0D01*
G01*
X169325000Y-88245000D01*
G75*
G02*
X169500000Y-88420000I0J-175000D01*
G01*
G37*
%TD*%
%TO.C,U1*%
G36*
G01*
X164550000Y-79420000D02*
X164550000Y-79770000D01*
G75*
G02*
X164375000Y-79945000I-175000J0D01*
G01*
X162675000Y-79945000D01*
G75*
G02*
X162500000Y-79770000I0J175000D01*
G01*
X162500000Y-79420000D01*
G75*
G02*
X162675000Y-79245000I175000J0D01*
G01*
X164375000Y-79245000D01*
G75*
G02*
X164550000Y-79420000I0J-175000D01*
G01*
G37*
G36*
G01*
X164550000Y-80690000D02*
X164550000Y-81040000D01*
G75*
G02*
X164375000Y-81215000I-175000J0D01*
G01*
X162675000Y-81215000D01*
G75*
G02*
X162500000Y-81040000I0J175000D01*
G01*
X162500000Y-80690000D01*
G75*
G02*
X162675000Y-80515000I175000J0D01*
G01*
X164375000Y-80515000D01*
G75*
G02*
X164550000Y-80690000I0J-175000D01*
G01*
G37*
G36*
G01*
X164550000Y-81960000D02*
X164550000Y-82310000D01*
G75*
G02*
X164375000Y-82485000I-175000J0D01*
G01*
X162675000Y-82485000D01*
G75*
G02*
X162500000Y-82310000I0J175000D01*
G01*
X162500000Y-81960000D01*
G75*
G02*
X162675000Y-81785000I175000J0D01*
G01*
X164375000Y-81785000D01*
G75*
G02*
X164550000Y-81960000I0J-175000D01*
G01*
G37*
G36*
G01*
X164550000Y-83230000D02*
X164550000Y-83580000D01*
G75*
G02*
X164375000Y-83755000I-175000J0D01*
G01*
X162675000Y-83755000D01*
G75*
G02*
X162500000Y-83580000I0J175000D01*
G01*
X162500000Y-83230000D01*
G75*
G02*
X162675000Y-83055000I175000J0D01*
G01*
X164375000Y-83055000D01*
G75*
G02*
X164550000Y-83230000I0J-175000D01*
G01*
G37*
G36*
G01*
X169500000Y-83230000D02*
X169500000Y-83580000D01*
G75*
G02*
X169325000Y-83755000I-175000J0D01*
G01*
X167625000Y-83755000D01*
G75*
G02*
X167450000Y-83580000I0J175000D01*
G01*
X167450000Y-83230000D01*
G75*
G02*
X167625000Y-83055000I175000J0D01*
G01*
X169325000Y-83055000D01*
G75*
G02*
X169500000Y-83230000I0J-175000D01*
G01*
G37*
G36*
G01*
X169500000Y-81960000D02*
X169500000Y-82310000D01*
G75*
G02*
X169325000Y-82485000I-175000J0D01*
G01*
X167625000Y-82485000D01*
G75*
G02*
X167450000Y-82310000I0J175000D01*
G01*
X167450000Y-81960000D01*
G75*
G02*
X167625000Y-81785000I175000J0D01*
G01*
X169325000Y-81785000D01*
G75*
G02*
X169500000Y-81960000I0J-175000D01*
G01*
G37*
G36*
G01*
X169500000Y-80690000D02*
X169500000Y-81040000D01*
G75*
G02*
X169325000Y-81215000I-175000J0D01*
G01*
X167625000Y-81215000D01*
G75*
G02*
X167450000Y-81040000I0J175000D01*
G01*
X167450000Y-80690000D01*
G75*
G02*
X167625000Y-80515000I175000J0D01*
G01*
X169325000Y-80515000D01*
G75*
G02*
X169500000Y-80690000I0J-175000D01*
G01*
G37*
G36*
G01*
X169500000Y-79420000D02*
X169500000Y-79770000D01*
G75*
G02*
X169325000Y-79945000I-175000J0D01*
G01*
X167625000Y-79945000D01*
G75*
G02*
X167450000Y-79770000I0J175000D01*
G01*
X167450000Y-79420000D01*
G75*
G02*
X167625000Y-79245000I175000J0D01*
G01*
X169325000Y-79245000D01*
G75*
G02*
X169500000Y-79420000I0J-175000D01*
G01*
G37*
%TD*%
D15*
%TO.C,H4*%
X196500000Y-115500000D03*
%TD*%
%TO.C,H3*%
X111500000Y-115500000D03*
%TD*%
%TO.C,H2*%
X196500000Y-65500000D03*
%TD*%
%TO.C,H1*%
X111500000Y-65500000D03*
%TD*%
D16*
%TO.C,J1*%
X189819000Y-82369500D03*
D17*
X189819000Y-79829500D03*
X189819000Y-77289500D03*
X189819000Y-74749500D03*
%TD*%
D18*
%TO.C,Q3*%
X109580000Y-90500000D03*
X107040000Y-90500000D03*
D19*
X104500000Y-90500000D03*
%TD*%
D14*
%TO.C,J6*%
X205250000Y-108000000D03*
%TD*%
%TO.C,J7*%
X205250000Y-102750000D03*
%TD*%
D17*
%TO.C,J4*%
X119397500Y-83512500D03*
X119397500Y-80972500D03*
X119397500Y-78432500D03*
D16*
X119397500Y-75892500D03*
%TD*%
D18*
%TO.C,Q1*%
X198920000Y-96000000D03*
X201460000Y-96000000D03*
D19*
X204000000Y-96000000D03*
%TD*%
D17*
%TO.C,J5*%
X124795000Y-98117500D03*
X124795000Y-100657500D03*
X124795000Y-103197500D03*
D16*
X124795000Y-105737500D03*
%TD*%
D17*
%TO.C,J2*%
X189819000Y-97609500D03*
X189819000Y-100149500D03*
X189819000Y-102689500D03*
D16*
X189819000Y-105229500D03*
%TD*%
M02*
