%TF.GenerationSoftware,KiCad,Pcbnew,(5.1.6)-1*%
%TF.CreationDate,2020-11-02T11:11:50+01:00*%
%TF.ProjectId,ltz10v,6c747a31-3076-42e6-9b69-6361645f7063,rev?*%
%TF.SameCoordinates,Original*%
%TF.FileFunction,Legend,Top*%
%TF.FilePolarity,Positive*%
%FSLAX46Y46*%
G04 Gerber Fmt 4.6, Leading zero omitted, Abs format (unit mm)*
G04 Created by KiCad (PCBNEW (5.1.6)-1) date 2020-11-02 11:11:50*
%MOMM*%
%LPD*%
G01*
G04 APERTURE LIST*
%ADD10C,0.127000*%
%ADD11C,0.120000*%
%ADD12C,0.150000*%
G04 APERTURE END LIST*
D10*
X114000000Y-70495000D02*
X194010000Y-70495000D01*
X194010000Y-70495000D02*
X194010000Y-90497500D01*
X194010000Y-110500000D02*
X114000000Y-110500000D01*
X114000000Y-110500000D02*
X114000000Y-70495000D01*
X194010000Y-90497500D02*
X194010000Y-110500000D01*
D11*
%TO.C,R937*%
X183290000Y-66241422D02*
X183290000Y-66758578D01*
X184710000Y-66241422D02*
X184710000Y-66758578D01*
%TO.C,R936*%
X164210000Y-66758578D02*
X164210000Y-66241422D01*
X162790000Y-66758578D02*
X162790000Y-66241422D01*
%TO.C,C24*%
X182210000Y-66758578D02*
X182210000Y-66241422D01*
X180790000Y-66758578D02*
X180790000Y-66241422D01*
%TO.C,C23*%
X178290000Y-66241422D02*
X178290000Y-66758578D01*
X179710000Y-66241422D02*
X179710000Y-66758578D01*
%TO.C,C22*%
X187210000Y-66758578D02*
X187210000Y-66241422D01*
X185790000Y-66758578D02*
X185790000Y-66241422D01*
%TO.C,C21*%
X165290000Y-66241422D02*
X165290000Y-66758578D01*
X166710000Y-66241422D02*
X166710000Y-66758578D01*
%TO.C,C20*%
X169210000Y-66758578D02*
X169210000Y-66241422D01*
X167790000Y-66758578D02*
X167790000Y-66241422D01*
%TO.C,U9*%
X174090000Y-64940000D02*
X171215000Y-64940000D01*
X174090000Y-64940000D02*
X175590000Y-64940000D01*
X174090000Y-68160000D02*
X172590000Y-68160000D01*
X174090000Y-68160000D02*
X175590000Y-68160000D01*
%TO.C,C18*%
X116456250Y-112258750D02*
X116456250Y-113046250D01*
X116062500Y-112652500D02*
X116850000Y-112652500D01*
X117090000Y-116845563D02*
X118154437Y-117910000D01*
X117090000Y-112154437D02*
X118154437Y-111090000D01*
X117090000Y-112154437D02*
X117090000Y-113440000D01*
X117090000Y-116845563D02*
X117090000Y-115560000D01*
X118154437Y-117910000D02*
X123910000Y-117910000D01*
X118154437Y-111090000D02*
X123910000Y-111090000D01*
X123910000Y-111090000D02*
X123910000Y-113440000D01*
X123910000Y-117910000D02*
X123910000Y-115560000D01*
%TO.C,C17*%
X126456250Y-112258750D02*
X126456250Y-113046250D01*
X126062500Y-112652500D02*
X126850000Y-112652500D01*
X127090000Y-116845563D02*
X128154437Y-117910000D01*
X127090000Y-112154437D02*
X128154437Y-111090000D01*
X127090000Y-112154437D02*
X127090000Y-113440000D01*
X127090000Y-116845563D02*
X127090000Y-115560000D01*
X128154437Y-117910000D02*
X133910000Y-117910000D01*
X128154437Y-111090000D02*
X133910000Y-111090000D01*
X133910000Y-111090000D02*
X133910000Y-113440000D01*
X133910000Y-117910000D02*
X133910000Y-115560000D01*
%TO.C,C16*%
X136456250Y-112258750D02*
X136456250Y-113046250D01*
X136062500Y-112652500D02*
X136850000Y-112652500D01*
X137090000Y-116845563D02*
X138154437Y-117910000D01*
X137090000Y-112154437D02*
X138154437Y-111090000D01*
X137090000Y-112154437D02*
X137090000Y-113440000D01*
X137090000Y-116845563D02*
X137090000Y-115560000D01*
X138154437Y-117910000D02*
X143910000Y-117910000D01*
X138154437Y-111090000D02*
X143910000Y-111090000D01*
X143910000Y-111090000D02*
X143910000Y-113440000D01*
X143910000Y-117910000D02*
X143910000Y-115560000D01*
%TO.C,C15*%
X146456250Y-112258750D02*
X146456250Y-113046250D01*
X146062500Y-112652500D02*
X146850000Y-112652500D01*
X147090000Y-116845563D02*
X148154437Y-117910000D01*
X147090000Y-112154437D02*
X148154437Y-111090000D01*
X147090000Y-112154437D02*
X147090000Y-113440000D01*
X147090000Y-116845563D02*
X147090000Y-115560000D01*
X148154437Y-117910000D02*
X153910000Y-117910000D01*
X148154437Y-111090000D02*
X153910000Y-111090000D01*
X153910000Y-111090000D02*
X153910000Y-113440000D01*
X153910000Y-117910000D02*
X153910000Y-115560000D01*
%TO.C,C14*%
X156456250Y-112258750D02*
X156456250Y-113046250D01*
X156062500Y-112652500D02*
X156850000Y-112652500D01*
X157090000Y-116845563D02*
X158154437Y-117910000D01*
X157090000Y-112154437D02*
X158154437Y-111090000D01*
X157090000Y-112154437D02*
X157090000Y-113440000D01*
X157090000Y-116845563D02*
X157090000Y-115560000D01*
X158154437Y-117910000D02*
X163910000Y-117910000D01*
X158154437Y-111090000D02*
X163910000Y-111090000D01*
X163910000Y-111090000D02*
X163910000Y-113440000D01*
X163910000Y-117910000D02*
X163910000Y-115560000D01*
%TO.C,D4*%
X166850000Y-117900000D02*
X166850000Y-112500000D01*
X170150000Y-117900000D02*
X170150000Y-112500000D01*
X166850000Y-117900000D02*
X170150000Y-117900000D01*
%TO.C,D3*%
X174150000Y-111100000D02*
X174150000Y-116500000D01*
X170850000Y-111100000D02*
X170850000Y-116500000D01*
X174150000Y-111100000D02*
X170850000Y-111100000D01*
%TO.C,D2*%
X174850000Y-117900000D02*
X174850000Y-112500000D01*
X178150000Y-117900000D02*
X178150000Y-112500000D01*
X174850000Y-117900000D02*
X178150000Y-117900000D01*
%TO.C,D1*%
X182150000Y-111100000D02*
X182150000Y-116500000D01*
X178850000Y-111100000D02*
X178850000Y-116500000D01*
X182150000Y-111100000D02*
X178850000Y-111100000D01*
%TO.C,C13*%
X198710000Y-108741422D02*
X198710000Y-109258578D01*
X197290000Y-108741422D02*
X197290000Y-109258578D01*
%TO.C,C12*%
X196258578Y-91210000D02*
X195741422Y-91210000D01*
X196258578Y-89790000D02*
X195741422Y-89790000D01*
%TO.C,C11*%
X198290000Y-80508578D02*
X198290000Y-79991422D01*
X199710000Y-80508578D02*
X199710000Y-79991422D01*
%TO.C,C10*%
X205790000Y-85446078D02*
X205790000Y-84928922D01*
X207210000Y-85446078D02*
X207210000Y-84928922D01*
%TO.C,C9*%
X204790000Y-73008578D02*
X204790000Y-72491422D01*
X206210000Y-73008578D02*
X206210000Y-72491422D01*
%TO.C,J1*%
X191149000Y-73419500D02*
X188489000Y-73419500D01*
X191149000Y-81099500D02*
X191149000Y-73419500D01*
X188489000Y-81099500D02*
X188489000Y-73419500D01*
X191149000Y-81099500D02*
X188489000Y-81099500D01*
X191149000Y-82369500D02*
X191149000Y-83699500D01*
X191149000Y-83699500D02*
X189819000Y-83699500D01*
%TO.C,ZD2*%
X201100000Y-107500000D02*
X199400000Y-107500000D01*
X199400000Y-107500000D02*
X199400000Y-110050000D01*
X201100000Y-107500000D02*
X201100000Y-110050000D01*
%TO.C,ZD1*%
X196600000Y-107500000D02*
X194900000Y-107500000D01*
X194900000Y-107500000D02*
X194900000Y-110050000D01*
X196600000Y-107500000D02*
X196600000Y-110050000D01*
%TO.C,U8*%
X107010000Y-105580000D02*
X107010000Y-104650000D01*
X107010000Y-102420000D02*
X107010000Y-103350000D01*
X107010000Y-102420000D02*
X104850000Y-102420000D01*
X107010000Y-105580000D02*
X105550000Y-105580000D01*
%TO.C,U7*%
X103940000Y-80250000D02*
X103940000Y-82050000D01*
X107160000Y-82050000D02*
X107160000Y-79600000D01*
%TO.C,U6*%
X110660000Y-101527500D02*
X110660000Y-100267500D01*
X110660000Y-94707500D02*
X110660000Y-95967500D01*
X106900000Y-101527500D02*
X110660000Y-101527500D01*
X104650000Y-94707500D02*
X110660000Y-94707500D01*
%TO.C,U5*%
X200360000Y-102400000D02*
X200360000Y-100600000D01*
X197140000Y-100600000D02*
X197140000Y-103050000D01*
%TO.C,U4*%
X204110000Y-73650000D02*
X204110000Y-71850000D01*
X200890000Y-71850000D02*
X200890000Y-74300000D01*
%TO.C,R927*%
X102960000Y-80991422D02*
X102960000Y-81508578D01*
X101540000Y-80991422D02*
X101540000Y-81508578D01*
%TO.C,R926*%
X104960000Y-73241422D02*
X104960000Y-73758578D01*
X103540000Y-73241422D02*
X103540000Y-73758578D01*
%TO.C,R925*%
X104960000Y-76991422D02*
X104960000Y-77508578D01*
X103540000Y-76991422D02*
X103540000Y-77508578D01*
%TO.C,R924*%
X105960000Y-84803922D02*
X105960000Y-85321078D01*
X104540000Y-84803922D02*
X104540000Y-85321078D01*
%TO.C,R923*%
X102710000Y-76991422D02*
X102710000Y-77508578D01*
X101290000Y-76991422D02*
X101290000Y-77508578D01*
%TO.C,R922*%
X108710000Y-76991422D02*
X108710000Y-77508578D01*
X107290000Y-76991422D02*
X107290000Y-77508578D01*
%TO.C,R921*%
X102290000Y-104258578D02*
X102290000Y-103741422D01*
X103710000Y-104258578D02*
X103710000Y-103741422D01*
%TO.C,R920*%
X111540000Y-81446078D02*
X111540000Y-80928922D01*
X112960000Y-81446078D02*
X112960000Y-80928922D01*
%TO.C,R919*%
X112960000Y-76991422D02*
X112960000Y-77508578D01*
X111540000Y-76991422D02*
X111540000Y-77508578D01*
%TO.C,R918*%
X198710000Y-105178922D02*
X198710000Y-105696078D01*
X197290000Y-105178922D02*
X197290000Y-105696078D01*
%TO.C,R917*%
X199540000Y-105758578D02*
X199540000Y-105241422D01*
X200960000Y-105758578D02*
X200960000Y-105241422D01*
%TO.C,R916*%
X202460000Y-101553922D02*
X202460000Y-102071078D01*
X201040000Y-101553922D02*
X201040000Y-102071078D01*
%TO.C,R915*%
X199710000Y-76241422D02*
X199710000Y-76758578D01*
X198290000Y-76241422D02*
X198290000Y-76758578D01*
%TO.C,R914*%
X200540000Y-80508578D02*
X200540000Y-79991422D01*
X201960000Y-80508578D02*
X201960000Y-79991422D01*
%TO.C,R913*%
X201960000Y-76241422D02*
X201960000Y-76758578D01*
X200540000Y-76241422D02*
X200540000Y-76758578D01*
%TO.C,R912*%
X203290000Y-80508578D02*
X203290000Y-79991422D01*
X204710000Y-80508578D02*
X204710000Y-79991422D01*
%TO.C,R911*%
X203290000Y-76758578D02*
X203290000Y-76241422D01*
X204710000Y-76758578D02*
X204710000Y-76241422D01*
%TO.C,R910*%
X195040000Y-105758578D02*
X195040000Y-105241422D01*
X196460000Y-105758578D02*
X196460000Y-105241422D01*
%TO.C,R909*%
X205502064Y-93910000D02*
X204297936Y-93910000D01*
X205502064Y-92090000D02*
X204297936Y-92090000D01*
%TO.C,R908*%
X205502064Y-91410000D02*
X204297936Y-91410000D01*
X205502064Y-89590000D02*
X204297936Y-89590000D01*
%TO.C,R904*%
X200752064Y-93910000D02*
X199547936Y-93910000D01*
X200752064Y-92090000D02*
X199547936Y-92090000D01*
%TO.C,R903*%
X200752064Y-91410000D02*
X199547936Y-91410000D01*
X200752064Y-89590000D02*
X199547936Y-89590000D01*
%TO.C,Q3*%
X101920000Y-87230000D02*
X112160000Y-87230000D01*
X101920000Y-91871000D02*
X112160000Y-91871000D01*
X101920000Y-87230000D02*
X101920000Y-91871000D01*
X112160000Y-87230000D02*
X112160000Y-91871000D01*
X101920000Y-88740000D02*
X112160000Y-88740000D01*
X105190000Y-87230000D02*
X105190000Y-88740000D01*
X108891000Y-87230000D02*
X108891000Y-88740000D01*
%TO.C,Q2*%
X198410000Y-87550000D02*
X198410000Y-88860000D01*
X198410000Y-88860000D02*
X195690000Y-88860000D01*
X194550000Y-84370000D02*
X195690000Y-84370000D01*
X198410000Y-84140000D02*
X198410000Y-85450000D01*
X195690000Y-84140000D02*
X198410000Y-84140000D01*
X195690000Y-84140000D02*
X195690000Y-84370000D01*
X195690000Y-88860000D02*
X195690000Y-88630000D01*
%TO.C,J4*%
X118067500Y-84842500D02*
X120727500Y-84842500D01*
X118067500Y-77162500D02*
X118067500Y-84842500D01*
X120727500Y-77162500D02*
X120727500Y-84842500D01*
X118067500Y-77162500D02*
X120727500Y-77162500D01*
X118067500Y-75892500D02*
X118067500Y-74562500D01*
X118067500Y-74562500D02*
X119397500Y-74562500D01*
%TO.C,C8*%
X101790000Y-85258578D02*
X101790000Y-84741422D01*
X103210000Y-85258578D02*
X103210000Y-84741422D01*
%TO.C,C7*%
X108040000Y-81508578D02*
X108040000Y-80991422D01*
X109460000Y-81508578D02*
X109460000Y-80991422D01*
%TO.C,C6*%
X111696078Y-103710000D02*
X111178922Y-103710000D01*
X111696078Y-102290000D02*
X111178922Y-102290000D01*
%TO.C,R901*%
X197210000Y-80508578D02*
X197210000Y-79991422D01*
X195790000Y-80508578D02*
X195790000Y-79991422D01*
%TO.C,R902*%
X205540000Y-79991422D02*
X205540000Y-80508578D01*
X206960000Y-79991422D02*
X206960000Y-80508578D01*
%TO.C,R905*%
X201491422Y-88960000D02*
X202008578Y-88960000D01*
X201491422Y-87540000D02*
X202008578Y-87540000D01*
%TO.C,R906*%
X205540000Y-76241422D02*
X205540000Y-76758578D01*
X206960000Y-76241422D02*
X206960000Y-76758578D01*
%TO.C,R907*%
X205758578Y-87540000D02*
X205241422Y-87540000D01*
X205758578Y-88960000D02*
X205241422Y-88960000D01*
%TO.C,U3*%
X201940000Y-84340000D02*
X201940000Y-86790000D01*
X205160000Y-86140000D02*
X205160000Y-84340000D01*
%TO.C,Q1*%
X199609000Y-99270000D02*
X199609000Y-97760000D01*
X203310000Y-99270000D02*
X203310000Y-97760000D01*
X206580000Y-97760000D02*
X196340000Y-97760000D01*
X196340000Y-99270000D02*
X196340000Y-94629000D01*
X206580000Y-99270000D02*
X206580000Y-94629000D01*
X206580000Y-94629000D02*
X196340000Y-94629000D01*
X206580000Y-99270000D02*
X196340000Y-99270000D01*
%TO.C,C5*%
X103960000Y-96571078D02*
X103960000Y-96053922D01*
X102540000Y-96571078D02*
X102540000Y-96053922D01*
%TO.C,C4*%
X103960000Y-100196078D02*
X103960000Y-99678922D01*
X102540000Y-100196078D02*
X102540000Y-99678922D01*
%TO.C,C3*%
X199790000Y-84991422D02*
X199790000Y-85508578D01*
X201210000Y-84991422D02*
X201210000Y-85508578D01*
%TO.C,C2*%
X195040000Y-101491422D02*
X195040000Y-102008578D01*
X196460000Y-101491422D02*
X196460000Y-102008578D01*
%TO.C,C1*%
X198790000Y-72491422D02*
X198790000Y-73008578D01*
X200210000Y-72491422D02*
X200210000Y-73008578D01*
%TO.C,J5*%
X126125000Y-107067500D02*
X124795000Y-107067500D01*
X126125000Y-105737500D02*
X126125000Y-107067500D01*
X126125000Y-104467500D02*
X123465000Y-104467500D01*
X123465000Y-104467500D02*
X123465000Y-96787500D01*
X126125000Y-104467500D02*
X126125000Y-96787500D01*
X126125000Y-96787500D02*
X123465000Y-96787500D01*
%TO.C,J2*%
X191149000Y-106559500D02*
X189819000Y-106559500D01*
X191149000Y-105229500D02*
X191149000Y-106559500D01*
X191149000Y-103959500D02*
X188489000Y-103959500D01*
X188489000Y-103959500D02*
X188489000Y-96279500D01*
X191149000Y-103959500D02*
X191149000Y-96279500D01*
X191149000Y-96279500D02*
X188489000Y-96279500D01*
%TO.C,J8*%
D12*
X183785714Y-112666666D02*
X184261904Y-112666666D01*
X183690476Y-112952380D02*
X184023809Y-111952380D01*
X184357142Y-112952380D01*
X185261904Y-112857142D02*
X185214285Y-112904761D01*
X185071428Y-112952380D01*
X184976190Y-112952380D01*
X184833333Y-112904761D01*
X184738095Y-112809523D01*
X184690476Y-112714285D01*
X184642857Y-112523809D01*
X184642857Y-112380952D01*
X184690476Y-112190476D01*
X184738095Y-112095238D01*
X184833333Y-112000000D01*
X184976190Y-111952380D01*
X185071428Y-111952380D01*
X185214285Y-112000000D01*
X185261904Y-112047619D01*
X185642857Y-112047619D02*
X185690476Y-112000000D01*
X185785714Y-111952380D01*
X186023809Y-111952380D01*
X186119047Y-112000000D01*
X186166666Y-112047619D01*
X186214285Y-112142857D01*
X186214285Y-112238095D01*
X186166666Y-112380952D01*
X185595238Y-112952380D01*
X186214285Y-112952380D01*
%TO.C,J3*%
X188785714Y-112666666D02*
X189261904Y-112666666D01*
X188690476Y-112952380D02*
X189023809Y-111952380D01*
X189357142Y-112952380D01*
X190261904Y-112857142D02*
X190214285Y-112904761D01*
X190071428Y-112952380D01*
X189976190Y-112952380D01*
X189833333Y-112904761D01*
X189738095Y-112809523D01*
X189690476Y-112714285D01*
X189642857Y-112523809D01*
X189642857Y-112380952D01*
X189690476Y-112190476D01*
X189738095Y-112095238D01*
X189833333Y-112000000D01*
X189976190Y-111952380D01*
X190071428Y-111952380D01*
X190214285Y-112000000D01*
X190261904Y-112047619D01*
X191214285Y-112952380D02*
X190642857Y-112952380D01*
X190928571Y-112952380D02*
X190928571Y-111952380D01*
X190833333Y-112095238D01*
X190738095Y-112190476D01*
X190642857Y-112238095D01*
%TO.C,J1*%
X189485666Y-84151880D02*
X189485666Y-84866166D01*
X189438047Y-85009023D01*
X189342809Y-85104261D01*
X189199952Y-85151880D01*
X189104714Y-85151880D01*
X190485666Y-85151880D02*
X189914238Y-85151880D01*
X190199952Y-85151880D02*
X190199952Y-84151880D01*
X190104714Y-84294738D01*
X190009476Y-84389976D01*
X189914238Y-84437595D01*
%TO.C,J6*%
X201928571Y-109785714D02*
X201976190Y-109642857D01*
X202023809Y-109595238D01*
X202119047Y-109547619D01*
X202261904Y-109547619D01*
X202357142Y-109595238D01*
X202404761Y-109642857D01*
X202452380Y-109738095D01*
X202452380Y-110119047D01*
X201452380Y-110119047D01*
X201452380Y-109785714D01*
X201500000Y-109690476D01*
X201547619Y-109642857D01*
X201642857Y-109595238D01*
X201738095Y-109595238D01*
X201833333Y-109642857D01*
X201880952Y-109690476D01*
X201928571Y-109785714D01*
X201928571Y-110119047D01*
X202452380Y-108690476D02*
X201928571Y-108690476D01*
X201833333Y-108738095D01*
X201785714Y-108833333D01*
X201785714Y-109023809D01*
X201833333Y-109119047D01*
X202404761Y-108690476D02*
X202452380Y-108785714D01*
X202452380Y-109023809D01*
X202404761Y-109119047D01*
X202309523Y-109166666D01*
X202214285Y-109166666D01*
X202119047Y-109119047D01*
X202071428Y-109023809D01*
X202071428Y-108785714D01*
X202023809Y-108690476D01*
X201785714Y-108357142D02*
X201785714Y-107976190D01*
X201452380Y-108214285D02*
X202309523Y-108214285D01*
X202404761Y-108166666D01*
X202452380Y-108071428D01*
X202452380Y-107976190D01*
X202071428Y-107642857D02*
X202071428Y-106880952D01*
%TO.C,J7*%
X203964285Y-99928571D02*
X204107142Y-99976190D01*
X204154761Y-100023809D01*
X204202380Y-100119047D01*
X204202380Y-100261904D01*
X204154761Y-100357142D01*
X204107142Y-100404761D01*
X204011904Y-100452380D01*
X203630952Y-100452380D01*
X203630952Y-99452380D01*
X203964285Y-99452380D01*
X204059523Y-99500000D01*
X204107142Y-99547619D01*
X204154761Y-99642857D01*
X204154761Y-99738095D01*
X204107142Y-99833333D01*
X204059523Y-99880952D01*
X203964285Y-99928571D01*
X203630952Y-99928571D01*
X205059523Y-100452380D02*
X205059523Y-99928571D01*
X205011904Y-99833333D01*
X204916666Y-99785714D01*
X204726190Y-99785714D01*
X204630952Y-99833333D01*
X205059523Y-100404761D02*
X204964285Y-100452380D01*
X204726190Y-100452380D01*
X204630952Y-100404761D01*
X204583333Y-100309523D01*
X204583333Y-100214285D01*
X204630952Y-100119047D01*
X204726190Y-100071428D01*
X204964285Y-100071428D01*
X205059523Y-100023809D01*
X205392857Y-99785714D02*
X205773809Y-99785714D01*
X205535714Y-99452380D02*
X205535714Y-100309523D01*
X205583333Y-100404761D01*
X205678571Y-100452380D01*
X205773809Y-100452380D01*
X206107142Y-100071428D02*
X206869047Y-100071428D01*
X206488095Y-100452380D02*
X206488095Y-99690476D01*
%TO.C,J4*%
X119064166Y-73014880D02*
X119064166Y-73729166D01*
X119016547Y-73872023D01*
X118921309Y-73967261D01*
X118778452Y-74014880D01*
X118683214Y-74014880D01*
X119968928Y-73348214D02*
X119968928Y-74014880D01*
X119730833Y-72967261D02*
X119492738Y-73681547D01*
X120111785Y-73681547D01*
%TO.C,J5*%
X124461666Y-107519880D02*
X124461666Y-108234166D01*
X124414047Y-108377023D01*
X124318809Y-108472261D01*
X124175952Y-108519880D01*
X124080714Y-108519880D01*
X125414047Y-107519880D02*
X124937857Y-107519880D01*
X124890238Y-107996071D01*
X124937857Y-107948452D01*
X125033095Y-107900833D01*
X125271190Y-107900833D01*
X125366428Y-107948452D01*
X125414047Y-107996071D01*
X125461666Y-108091309D01*
X125461666Y-108329404D01*
X125414047Y-108424642D01*
X125366428Y-108472261D01*
X125271190Y-108519880D01*
X125033095Y-108519880D01*
X124937857Y-108472261D01*
X124890238Y-108424642D01*
%TO.C,J2*%
X189485666Y-107011880D02*
X189485666Y-107726166D01*
X189438047Y-107869023D01*
X189342809Y-107964261D01*
X189199952Y-108011880D01*
X189104714Y-108011880D01*
X189914238Y-107107119D02*
X189961857Y-107059500D01*
X190057095Y-107011880D01*
X190295190Y-107011880D01*
X190390428Y-107059500D01*
X190438047Y-107107119D01*
X190485666Y-107202357D01*
X190485666Y-107297595D01*
X190438047Y-107440452D01*
X189866619Y-108011880D01*
X190485666Y-108011880D01*
%TD*%
M02*
