%TF.GenerationSoftware,KiCad,Pcbnew,(5.1.6)-1*%
%TF.CreationDate,2020-11-02T11:11:50+01:00*%
%TF.ProjectId,ltz10v,6c747a31-3076-42e6-9b69-6361645f7063,rev?*%
%TF.SameCoordinates,Original*%
%TF.FileFunction,Copper,L2,Inr*%
%TF.FilePolarity,Positive*%
%FSLAX46Y46*%
G04 Gerber Fmt 4.6, Leading zero omitted, Abs format (unit mm)*
G04 Created by KiCad (PCBNEW (5.1.6)-1) date 2020-11-02 11:11:50*
%MOMM*%
%LPD*%
G01*
G04 APERTURE LIST*
%TA.AperFunction,ViaPad*%
%ADD10C,1.998980*%
%TD*%
%TA.AperFunction,ViaPad*%
%ADD11C,4.000500*%
%TD*%
%TA.AperFunction,ViaPad*%
%ADD12R,1.700000X1.700000*%
%TD*%
%TA.AperFunction,ViaPad*%
%ADD13O,1.700000X1.700000*%
%TD*%
%TA.AperFunction,ViaPad*%
%ADD14O,1.905000X2.000000*%
%TD*%
%TA.AperFunction,ViaPad*%
%ADD15R,1.905000X2.000000*%
%TD*%
%TA.AperFunction,ViaPad*%
%ADD16C,0.800000*%
%TD*%
%TA.AperFunction,Conductor*%
%ADD17C,0.500000*%
%TD*%
%TA.AperFunction,Conductor*%
%ADD18C,0.254000*%
%TD*%
G04 APERTURE END LIST*
D10*
%TO.N,Net-(J12-Pad1)*%
%TO.C,J12*%
X142500000Y-67500000D03*
%TD*%
%TO.N,Net-(C29-Pad2)*%
%TO.C,J11*%
X136500000Y-67500000D03*
%TD*%
%TO.N,Net-(J10-Pad1)*%
%TO.C,J10*%
X148500000Y-67500000D03*
%TD*%
%TO.N,Net-(J9-Pad1)*%
%TO.C,J9*%
X154500000Y-67500000D03*
%TD*%
D11*
%TO.N,Net-(D3-Pad2)*%
%TO.C,J8*%
X185000000Y-116000000D03*
%TD*%
%TO.N,Net-(D1-Pad2)*%
%TO.C,J3*%
X190000000Y-116000000D03*
%TD*%
D12*
%TO.N,/battery/11V*%
%TO.C,J1*%
X189819000Y-82369500D03*
D13*
X189819000Y-79829500D03*
%TO.N,GND*%
X189819000Y-77289500D03*
X189819000Y-74749500D03*
%TD*%
D14*
%TO.N,/temperature/sheet5FAD990D/H*%
%TO.C,Q3*%
X109580000Y-90500000D03*
%TO.N,+12V*%
X107040000Y-90500000D03*
D15*
%TO.N,Net-(Q3-Pad1)*%
X104500000Y-90500000D03*
%TD*%
D11*
%TO.N,GND*%
%TO.C,J6*%
X205250000Y-108000000D03*
%TD*%
%TO.N,Net-(J7-Pad1)*%
%TO.C,J7*%
X205250000Y-102750000D03*
%TD*%
D13*
%TO.N,GND*%
%TO.C,J4*%
X119397500Y-83512500D03*
%TO.N,/temperature/t_fb2*%
X119397500Y-80972500D03*
%TO.N,/temperature/t_fb1*%
X119397500Y-78432500D03*
D12*
%TO.N,Net-(J4-Pad1)*%
X119397500Y-75892500D03*
%TD*%
D14*
%TO.N,Net-(Q1-Pad3)*%
%TO.C,Q1*%
X198920000Y-96000000D03*
%TO.N,+15V*%
X201460000Y-96000000D03*
D15*
%TO.N,Net-(Q1-Pad1)*%
X204000000Y-96000000D03*
%TD*%
D13*
%TO.N,+5V*%
%TO.C,J5*%
X124795000Y-98117500D03*
%TO.N,GND*%
X124795000Y-100657500D03*
%TO.N,Net-(J5-Pad2)*%
X124795000Y-103197500D03*
D12*
%TO.N,Net-(J5-Pad1)*%
X124795000Y-105737500D03*
%TD*%
D13*
%TO.N,/buffer/Zener_drive-*%
%TO.C,J2*%
X189819000Y-97609500D03*
X189819000Y-100149500D03*
%TO.N,/buffer/Zener_drive+*%
X189819000Y-102689500D03*
D12*
X189819000Y-105229500D03*
%TD*%
D16*
%TO.N,GND*%
X109000000Y-103000000D03*
X103250000Y-94000000D03*
X110250000Y-80250000D03*
X106000000Y-72500000D03*
X188000000Y-90500000D03*
X188000000Y-73500000D03*
X188000000Y-107500000D03*
X188000000Y-81500000D03*
X188000000Y-99500000D03*
X197500000Y-77500000D03*
X197750000Y-73750000D03*
X198750000Y-101250000D03*
X193250000Y-90500000D03*
X198750000Y-84750000D03*
X193250000Y-109750000D03*
X123000000Y-110000000D03*
X133000000Y-110000000D03*
X143000000Y-110000000D03*
X153000000Y-110000000D03*
X163000000Y-110000000D03*
X168500000Y-110000000D03*
X176500000Y-110000000D03*
X193000000Y-108500000D03*
X191500000Y-108500000D03*
X191500000Y-110000000D03*
X174000000Y-71000000D03*
X152500000Y-108500000D03*
X177500000Y-71500000D03*
X167000000Y-71000000D03*
%TO.N,+15V*%
X199750000Y-83000000D03*
X198000000Y-71750000D03*
%TO.N,Net-(Q1-Pad1)*%
X206250000Y-82500000D03*
%TO.N,/temperature/sheet5FAD990D/H*%
X105250000Y-88000000D03*
%TO.N,Net-(Q2-Pad1)*%
X195000000Y-83500000D03*
X201750000Y-104500000D03*
%TO.N,Net-(R901-Pad1)*%
X196750000Y-82500000D03*
X203500000Y-87500000D03*
%TO.N,Net-(J7-Pad1)*%
X195967480Y-88500000D03*
%TO.N,Net-(C10-Pad1)*%
X204250000Y-82500000D03*
X205250000Y-85250000D03*
%TO.N,Net-(C11-Pad2)*%
X198000000Y-82750000D03*
X198725002Y-100000000D03*
%TO.N,Net-(C11-Pad1)*%
X201250000Y-82500000D03*
X200606725Y-99723038D03*
%TO.N,+12V*%
X193500000Y-86500000D03*
X114500000Y-83500000D03*
X114500000Y-87500000D03*
X114500000Y-93000000D03*
X162500000Y-71000000D03*
X176500000Y-71000000D03*
X154500000Y-71000000D03*
X165000000Y-71000000D03*
%TD*%
D17*
%TO.N,GND*%
X110250000Y-80250000D02*
X115250000Y-80250000D01*
X109000000Y-103000000D02*
X114750000Y-103000000D01*
X103250000Y-94000000D02*
X115000000Y-94000000D01*
X106000000Y-72500000D02*
X114750000Y-72500000D01*
X197500000Y-77500000D02*
X193500000Y-77500000D01*
X197750000Y-73750000D02*
X193250000Y-73750000D01*
X198750000Y-101250000D02*
X193250000Y-101250000D01*
X198750000Y-84750000D02*
X193250000Y-84750000D01*
%TD*%
D18*
%TO.N,GND*%
G36*
X153504774Y-70698102D02*
G01*
X153465000Y-70898061D01*
X153465000Y-71101939D01*
X153504774Y-71301898D01*
X153582795Y-71490256D01*
X153696063Y-71659774D01*
X153840226Y-71803937D01*
X154009744Y-71917205D01*
X154198102Y-71995226D01*
X154398061Y-72035000D01*
X154601939Y-72035000D01*
X154801898Y-71995226D01*
X154990256Y-71917205D01*
X155159774Y-71803937D01*
X155303937Y-71659774D01*
X155417205Y-71490256D01*
X155495226Y-71301898D01*
X155535000Y-71101939D01*
X155535000Y-70898061D01*
X155495226Y-70698102D01*
X155465774Y-70627000D01*
X161534226Y-70627000D01*
X161504774Y-70698102D01*
X161465000Y-70898061D01*
X161465000Y-71101939D01*
X161504774Y-71301898D01*
X161582795Y-71490256D01*
X161696063Y-71659774D01*
X161840226Y-71803937D01*
X162009744Y-71917205D01*
X162198102Y-71995226D01*
X162398061Y-72035000D01*
X162601939Y-72035000D01*
X162801898Y-71995226D01*
X162990256Y-71917205D01*
X163159774Y-71803937D01*
X163303937Y-71659774D01*
X163417205Y-71490256D01*
X163495226Y-71301898D01*
X163535000Y-71101939D01*
X163535000Y-70898061D01*
X163495226Y-70698102D01*
X163465774Y-70627000D01*
X164034226Y-70627000D01*
X164004774Y-70698102D01*
X163965000Y-70898061D01*
X163965000Y-71101939D01*
X164004774Y-71301898D01*
X164082795Y-71490256D01*
X164196063Y-71659774D01*
X164340226Y-71803937D01*
X164509744Y-71917205D01*
X164698102Y-71995226D01*
X164898061Y-72035000D01*
X165101939Y-72035000D01*
X165301898Y-71995226D01*
X165490256Y-71917205D01*
X165659774Y-71803937D01*
X165803937Y-71659774D01*
X165917205Y-71490256D01*
X165995226Y-71301898D01*
X166035000Y-71101939D01*
X166035000Y-70898061D01*
X165995226Y-70698102D01*
X165965774Y-70627000D01*
X175534226Y-70627000D01*
X175504774Y-70698102D01*
X175465000Y-70898061D01*
X175465000Y-71101939D01*
X175504774Y-71301898D01*
X175582795Y-71490256D01*
X175696063Y-71659774D01*
X175840226Y-71803937D01*
X176009744Y-71917205D01*
X176198102Y-71995226D01*
X176398061Y-72035000D01*
X176601939Y-72035000D01*
X176801898Y-71995226D01*
X176990256Y-71917205D01*
X177159774Y-71803937D01*
X177303937Y-71659774D01*
X177417205Y-71490256D01*
X177495226Y-71301898D01*
X177535000Y-71101939D01*
X177535000Y-70898061D01*
X177495226Y-70698102D01*
X177465774Y-70627000D01*
X193873000Y-70627000D01*
X193873000Y-85534226D01*
X193801898Y-85504774D01*
X193601939Y-85465000D01*
X193398061Y-85465000D01*
X193198102Y-85504774D01*
X193009744Y-85582795D01*
X192840226Y-85696063D01*
X192696063Y-85840226D01*
X192582795Y-86009744D01*
X192504774Y-86198102D01*
X192465000Y-86398061D01*
X192465000Y-86601939D01*
X192504774Y-86801898D01*
X192582795Y-86990256D01*
X192696063Y-87159774D01*
X192840226Y-87303937D01*
X193009744Y-87417205D01*
X193198102Y-87495226D01*
X193398061Y-87535000D01*
X193601939Y-87535000D01*
X193801898Y-87495226D01*
X193873000Y-87465774D01*
X193873000Y-110373000D01*
X114127000Y-110373000D01*
X114127000Y-104887500D01*
X123306928Y-104887500D01*
X123306928Y-106587500D01*
X123319188Y-106711982D01*
X123355498Y-106831680D01*
X123414463Y-106941994D01*
X123493815Y-107038685D01*
X123590506Y-107118037D01*
X123700820Y-107177002D01*
X123820518Y-107213312D01*
X123945000Y-107225572D01*
X125645000Y-107225572D01*
X125769482Y-107213312D01*
X125889180Y-107177002D01*
X125999494Y-107118037D01*
X126096185Y-107038685D01*
X126175537Y-106941994D01*
X126234502Y-106831680D01*
X126270812Y-106711982D01*
X126283072Y-106587500D01*
X126283072Y-104887500D01*
X126270812Y-104763018D01*
X126234502Y-104643320D01*
X126175537Y-104533006D01*
X126096185Y-104436315D01*
X126026956Y-104379500D01*
X188330928Y-104379500D01*
X188330928Y-106079500D01*
X188343188Y-106203982D01*
X188379498Y-106323680D01*
X188438463Y-106433994D01*
X188517815Y-106530685D01*
X188614506Y-106610037D01*
X188724820Y-106669002D01*
X188844518Y-106705312D01*
X188969000Y-106717572D01*
X190669000Y-106717572D01*
X190793482Y-106705312D01*
X190913180Y-106669002D01*
X191023494Y-106610037D01*
X191120185Y-106530685D01*
X191199537Y-106433994D01*
X191258502Y-106323680D01*
X191294812Y-106203982D01*
X191307072Y-106079500D01*
X191307072Y-104379500D01*
X191294812Y-104255018D01*
X191258502Y-104135320D01*
X191199537Y-104025006D01*
X191120185Y-103928315D01*
X191023494Y-103848963D01*
X190913180Y-103789998D01*
X190840620Y-103767987D01*
X190972475Y-103636132D01*
X191134990Y-103392911D01*
X191246932Y-103122658D01*
X191304000Y-102835760D01*
X191304000Y-102543240D01*
X191246932Y-102256342D01*
X191134990Y-101986089D01*
X190972475Y-101742868D01*
X190765632Y-101536025D01*
X190591240Y-101419500D01*
X190765632Y-101302975D01*
X190972475Y-101096132D01*
X191134990Y-100852911D01*
X191246932Y-100582658D01*
X191304000Y-100295760D01*
X191304000Y-100003240D01*
X191246932Y-99716342D01*
X191134990Y-99446089D01*
X190972475Y-99202868D01*
X190765632Y-98996025D01*
X190591240Y-98879500D01*
X190765632Y-98762975D01*
X190972475Y-98556132D01*
X191134990Y-98312911D01*
X191246932Y-98042658D01*
X191304000Y-97755760D01*
X191304000Y-97463240D01*
X191246932Y-97176342D01*
X191134990Y-96906089D01*
X190972475Y-96662868D01*
X190765632Y-96456025D01*
X190522411Y-96293510D01*
X190252158Y-96181568D01*
X189965260Y-96124500D01*
X189672740Y-96124500D01*
X189385842Y-96181568D01*
X189115589Y-96293510D01*
X188872368Y-96456025D01*
X188665525Y-96662868D01*
X188503010Y-96906089D01*
X188391068Y-97176342D01*
X188334000Y-97463240D01*
X188334000Y-97755760D01*
X188391068Y-98042658D01*
X188503010Y-98312911D01*
X188665525Y-98556132D01*
X188872368Y-98762975D01*
X189046760Y-98879500D01*
X188872368Y-98996025D01*
X188665525Y-99202868D01*
X188503010Y-99446089D01*
X188391068Y-99716342D01*
X188334000Y-100003240D01*
X188334000Y-100295760D01*
X188391068Y-100582658D01*
X188503010Y-100852911D01*
X188665525Y-101096132D01*
X188872368Y-101302975D01*
X189046760Y-101419500D01*
X188872368Y-101536025D01*
X188665525Y-101742868D01*
X188503010Y-101986089D01*
X188391068Y-102256342D01*
X188334000Y-102543240D01*
X188334000Y-102835760D01*
X188391068Y-103122658D01*
X188503010Y-103392911D01*
X188665525Y-103636132D01*
X188797380Y-103767987D01*
X188724820Y-103789998D01*
X188614506Y-103848963D01*
X188517815Y-103928315D01*
X188438463Y-104025006D01*
X188379498Y-104135320D01*
X188343188Y-104255018D01*
X188330928Y-104379500D01*
X126026956Y-104379500D01*
X125999494Y-104356963D01*
X125889180Y-104297998D01*
X125816620Y-104275987D01*
X125948475Y-104144132D01*
X126110990Y-103900911D01*
X126222932Y-103630658D01*
X126280000Y-103343760D01*
X126280000Y-103051240D01*
X126222932Y-102764342D01*
X126110990Y-102494089D01*
X125948475Y-102250868D01*
X125741632Y-102044025D01*
X125559466Y-101922305D01*
X125676355Y-101852678D01*
X125892588Y-101657769D01*
X126066641Y-101424420D01*
X126191825Y-101161599D01*
X126236476Y-101014390D01*
X126115155Y-100784500D01*
X124922000Y-100784500D01*
X124922000Y-100804500D01*
X124668000Y-100804500D01*
X124668000Y-100784500D01*
X123474845Y-100784500D01*
X123353524Y-101014390D01*
X123398175Y-101161599D01*
X123523359Y-101424420D01*
X123697412Y-101657769D01*
X123913645Y-101852678D01*
X124030534Y-101922305D01*
X123848368Y-102044025D01*
X123641525Y-102250868D01*
X123479010Y-102494089D01*
X123367068Y-102764342D01*
X123310000Y-103051240D01*
X123310000Y-103343760D01*
X123367068Y-103630658D01*
X123479010Y-103900911D01*
X123641525Y-104144132D01*
X123773380Y-104275987D01*
X123700820Y-104297998D01*
X123590506Y-104356963D01*
X123493815Y-104436315D01*
X123414463Y-104533006D01*
X123355498Y-104643320D01*
X123319188Y-104763018D01*
X123306928Y-104887500D01*
X114127000Y-104887500D01*
X114127000Y-97971240D01*
X123310000Y-97971240D01*
X123310000Y-98263760D01*
X123367068Y-98550658D01*
X123479010Y-98820911D01*
X123641525Y-99064132D01*
X123848368Y-99270975D01*
X124030534Y-99392695D01*
X123913645Y-99462322D01*
X123697412Y-99657231D01*
X123523359Y-99890580D01*
X123398175Y-100153401D01*
X123353524Y-100300610D01*
X123474845Y-100530500D01*
X124668000Y-100530500D01*
X124668000Y-100510500D01*
X124922000Y-100510500D01*
X124922000Y-100530500D01*
X126115155Y-100530500D01*
X126236476Y-100300610D01*
X126191825Y-100153401D01*
X126066641Y-99890580D01*
X125892588Y-99657231D01*
X125676355Y-99462322D01*
X125559466Y-99392695D01*
X125741632Y-99270975D01*
X125948475Y-99064132D01*
X126110990Y-98820911D01*
X126222932Y-98550658D01*
X126280000Y-98263760D01*
X126280000Y-97971240D01*
X126222932Y-97684342D01*
X126110990Y-97414089D01*
X125948475Y-97170868D01*
X125741632Y-96964025D01*
X125498411Y-96801510D01*
X125228158Y-96689568D01*
X124941260Y-96632500D01*
X124648740Y-96632500D01*
X124361842Y-96689568D01*
X124091589Y-96801510D01*
X123848368Y-96964025D01*
X123641525Y-97170868D01*
X123479010Y-97414089D01*
X123367068Y-97684342D01*
X123310000Y-97971240D01*
X114127000Y-97971240D01*
X114127000Y-93965774D01*
X114198102Y-93995226D01*
X114398061Y-94035000D01*
X114601939Y-94035000D01*
X114801898Y-93995226D01*
X114990256Y-93917205D01*
X115159774Y-93803937D01*
X115303937Y-93659774D01*
X115417205Y-93490256D01*
X115495226Y-93301898D01*
X115535000Y-93101939D01*
X115535000Y-92898061D01*
X115495226Y-92698102D01*
X115417205Y-92509744D01*
X115303937Y-92340226D01*
X115159774Y-92196063D01*
X114990256Y-92082795D01*
X114801898Y-92004774D01*
X114601939Y-91965000D01*
X114398061Y-91965000D01*
X114198102Y-92004774D01*
X114127000Y-92034226D01*
X114127000Y-88465774D01*
X114198102Y-88495226D01*
X114398061Y-88535000D01*
X114601939Y-88535000D01*
X114801898Y-88495226D01*
X114990256Y-88417205D01*
X115159774Y-88303937D01*
X115303937Y-88159774D01*
X115417205Y-87990256D01*
X115495226Y-87801898D01*
X115535000Y-87601939D01*
X115535000Y-87398061D01*
X115495226Y-87198102D01*
X115417205Y-87009744D01*
X115303937Y-86840226D01*
X115159774Y-86696063D01*
X114990256Y-86582795D01*
X114801898Y-86504774D01*
X114601939Y-86465000D01*
X114398061Y-86465000D01*
X114198102Y-86504774D01*
X114127000Y-86534226D01*
X114127000Y-84465774D01*
X114198102Y-84495226D01*
X114398061Y-84535000D01*
X114601939Y-84535000D01*
X114801898Y-84495226D01*
X114990256Y-84417205D01*
X115159774Y-84303937D01*
X115303937Y-84159774D01*
X115417205Y-83990256D01*
X115467269Y-83869390D01*
X117956024Y-83869390D01*
X118000675Y-84016599D01*
X118125859Y-84279420D01*
X118299912Y-84512769D01*
X118516145Y-84707678D01*
X118766248Y-84856657D01*
X119040609Y-84953981D01*
X119270500Y-84833314D01*
X119270500Y-83639500D01*
X119524500Y-83639500D01*
X119524500Y-84833314D01*
X119754391Y-84953981D01*
X120028752Y-84856657D01*
X120278855Y-84707678D01*
X120495088Y-84512769D01*
X120669141Y-84279420D01*
X120794325Y-84016599D01*
X120838976Y-83869390D01*
X120717655Y-83639500D01*
X119524500Y-83639500D01*
X119270500Y-83639500D01*
X118077345Y-83639500D01*
X117956024Y-83869390D01*
X115467269Y-83869390D01*
X115495226Y-83801898D01*
X115535000Y-83601939D01*
X115535000Y-83398061D01*
X115495226Y-83198102D01*
X115417205Y-83009744D01*
X115303937Y-82840226D01*
X115159774Y-82696063D01*
X114990256Y-82582795D01*
X114801898Y-82504774D01*
X114601939Y-82465000D01*
X114398061Y-82465000D01*
X114198102Y-82504774D01*
X114127000Y-82534226D01*
X114127000Y-75042500D01*
X117909428Y-75042500D01*
X117909428Y-76742500D01*
X117921688Y-76866982D01*
X117957998Y-76986680D01*
X118016963Y-77096994D01*
X118096315Y-77193685D01*
X118193006Y-77273037D01*
X118303320Y-77332002D01*
X118375880Y-77354013D01*
X118244025Y-77485868D01*
X118081510Y-77729089D01*
X117969568Y-77999342D01*
X117912500Y-78286240D01*
X117912500Y-78578760D01*
X117969568Y-78865658D01*
X118081510Y-79135911D01*
X118244025Y-79379132D01*
X118450868Y-79585975D01*
X118625260Y-79702500D01*
X118450868Y-79819025D01*
X118244025Y-80025868D01*
X118081510Y-80269089D01*
X117969568Y-80539342D01*
X117912500Y-80826240D01*
X117912500Y-81118760D01*
X117969568Y-81405658D01*
X118081510Y-81675911D01*
X118244025Y-81919132D01*
X118450868Y-82125975D01*
X118633034Y-82247695D01*
X118516145Y-82317322D01*
X118299912Y-82512231D01*
X118125859Y-82745580D01*
X118000675Y-83008401D01*
X117956024Y-83155610D01*
X118077345Y-83385500D01*
X119270500Y-83385500D01*
X119270500Y-83365500D01*
X119524500Y-83365500D01*
X119524500Y-83385500D01*
X120717655Y-83385500D01*
X120838976Y-83155610D01*
X120794325Y-83008401D01*
X120669141Y-82745580D01*
X120495088Y-82512231D01*
X120278855Y-82317322D01*
X120161966Y-82247695D01*
X120344132Y-82125975D01*
X120550975Y-81919132D01*
X120713490Y-81675911D01*
X120778277Y-81519500D01*
X188330928Y-81519500D01*
X188330928Y-83219500D01*
X188343188Y-83343982D01*
X188379498Y-83463680D01*
X188438463Y-83573994D01*
X188517815Y-83670685D01*
X188614506Y-83750037D01*
X188724820Y-83809002D01*
X188844518Y-83845312D01*
X188969000Y-83857572D01*
X190669000Y-83857572D01*
X190793482Y-83845312D01*
X190913180Y-83809002D01*
X191023494Y-83750037D01*
X191120185Y-83670685D01*
X191199537Y-83573994D01*
X191258502Y-83463680D01*
X191294812Y-83343982D01*
X191307072Y-83219500D01*
X191307072Y-81519500D01*
X191294812Y-81395018D01*
X191258502Y-81275320D01*
X191199537Y-81165006D01*
X191120185Y-81068315D01*
X191023494Y-80988963D01*
X190913180Y-80929998D01*
X190840620Y-80907987D01*
X190972475Y-80776132D01*
X191134990Y-80532911D01*
X191246932Y-80262658D01*
X191304000Y-79975760D01*
X191304000Y-79683240D01*
X191246932Y-79396342D01*
X191134990Y-79126089D01*
X190972475Y-78882868D01*
X190765632Y-78676025D01*
X190583466Y-78554305D01*
X190700355Y-78484678D01*
X190916588Y-78289769D01*
X191090641Y-78056420D01*
X191215825Y-77793599D01*
X191260476Y-77646390D01*
X191139155Y-77416500D01*
X189946000Y-77416500D01*
X189946000Y-77436500D01*
X189692000Y-77436500D01*
X189692000Y-77416500D01*
X188498845Y-77416500D01*
X188377524Y-77646390D01*
X188422175Y-77793599D01*
X188547359Y-78056420D01*
X188721412Y-78289769D01*
X188937645Y-78484678D01*
X189054534Y-78554305D01*
X188872368Y-78676025D01*
X188665525Y-78882868D01*
X188503010Y-79126089D01*
X188391068Y-79396342D01*
X188334000Y-79683240D01*
X188334000Y-79975760D01*
X188391068Y-80262658D01*
X188503010Y-80532911D01*
X188665525Y-80776132D01*
X188797380Y-80907987D01*
X188724820Y-80929998D01*
X188614506Y-80988963D01*
X188517815Y-81068315D01*
X188438463Y-81165006D01*
X188379498Y-81275320D01*
X188343188Y-81395018D01*
X188330928Y-81519500D01*
X120778277Y-81519500D01*
X120825432Y-81405658D01*
X120882500Y-81118760D01*
X120882500Y-80826240D01*
X120825432Y-80539342D01*
X120713490Y-80269089D01*
X120550975Y-80025868D01*
X120344132Y-79819025D01*
X120169740Y-79702500D01*
X120344132Y-79585975D01*
X120550975Y-79379132D01*
X120713490Y-79135911D01*
X120825432Y-78865658D01*
X120882500Y-78578760D01*
X120882500Y-78286240D01*
X120825432Y-77999342D01*
X120713490Y-77729089D01*
X120550975Y-77485868D01*
X120419120Y-77354013D01*
X120491680Y-77332002D01*
X120601994Y-77273037D01*
X120698685Y-77193685D01*
X120778037Y-77096994D01*
X120837002Y-76986680D01*
X120873312Y-76866982D01*
X120885572Y-76742500D01*
X120885572Y-75106390D01*
X188377524Y-75106390D01*
X188422175Y-75253599D01*
X188547359Y-75516420D01*
X188721412Y-75749769D01*
X188937645Y-75944678D01*
X189063255Y-76019500D01*
X188937645Y-76094322D01*
X188721412Y-76289231D01*
X188547359Y-76522580D01*
X188422175Y-76785401D01*
X188377524Y-76932610D01*
X188498845Y-77162500D01*
X189692000Y-77162500D01*
X189692000Y-74876500D01*
X189946000Y-74876500D01*
X189946000Y-77162500D01*
X191139155Y-77162500D01*
X191260476Y-76932610D01*
X191215825Y-76785401D01*
X191090641Y-76522580D01*
X190916588Y-76289231D01*
X190700355Y-76094322D01*
X190574745Y-76019500D01*
X190700355Y-75944678D01*
X190916588Y-75749769D01*
X191090641Y-75516420D01*
X191215825Y-75253599D01*
X191260476Y-75106390D01*
X191139155Y-74876500D01*
X189946000Y-74876500D01*
X189692000Y-74876500D01*
X188498845Y-74876500D01*
X188377524Y-75106390D01*
X120885572Y-75106390D01*
X120885572Y-75042500D01*
X120873312Y-74918018D01*
X120837002Y-74798320D01*
X120778037Y-74688006D01*
X120698685Y-74591315D01*
X120601994Y-74511963D01*
X120491680Y-74452998D01*
X120371982Y-74416688D01*
X120247500Y-74404428D01*
X118547500Y-74404428D01*
X118423018Y-74416688D01*
X118303320Y-74452998D01*
X118193006Y-74511963D01*
X118096315Y-74591315D01*
X118016963Y-74688006D01*
X117957998Y-74798320D01*
X117921688Y-74918018D01*
X117909428Y-75042500D01*
X114127000Y-75042500D01*
X114127000Y-74392610D01*
X188377524Y-74392610D01*
X188498845Y-74622500D01*
X189692000Y-74622500D01*
X189692000Y-73428686D01*
X189946000Y-73428686D01*
X189946000Y-74622500D01*
X191139155Y-74622500D01*
X191260476Y-74392610D01*
X191215825Y-74245401D01*
X191090641Y-73982580D01*
X190916588Y-73749231D01*
X190700355Y-73554322D01*
X190450252Y-73405343D01*
X190175891Y-73308019D01*
X189946000Y-73428686D01*
X189692000Y-73428686D01*
X189462109Y-73308019D01*
X189187748Y-73405343D01*
X188937645Y-73554322D01*
X188721412Y-73749231D01*
X188547359Y-73982580D01*
X188422175Y-74245401D01*
X188377524Y-74392610D01*
X114127000Y-74392610D01*
X114127000Y-70627000D01*
X153534226Y-70627000D01*
X153504774Y-70698102D01*
G37*
X153504774Y-70698102D02*
X153465000Y-70898061D01*
X153465000Y-71101939D01*
X153504774Y-71301898D01*
X153582795Y-71490256D01*
X153696063Y-71659774D01*
X153840226Y-71803937D01*
X154009744Y-71917205D01*
X154198102Y-71995226D01*
X154398061Y-72035000D01*
X154601939Y-72035000D01*
X154801898Y-71995226D01*
X154990256Y-71917205D01*
X155159774Y-71803937D01*
X155303937Y-71659774D01*
X155417205Y-71490256D01*
X155495226Y-71301898D01*
X155535000Y-71101939D01*
X155535000Y-70898061D01*
X155495226Y-70698102D01*
X155465774Y-70627000D01*
X161534226Y-70627000D01*
X161504774Y-70698102D01*
X161465000Y-70898061D01*
X161465000Y-71101939D01*
X161504774Y-71301898D01*
X161582795Y-71490256D01*
X161696063Y-71659774D01*
X161840226Y-71803937D01*
X162009744Y-71917205D01*
X162198102Y-71995226D01*
X162398061Y-72035000D01*
X162601939Y-72035000D01*
X162801898Y-71995226D01*
X162990256Y-71917205D01*
X163159774Y-71803937D01*
X163303937Y-71659774D01*
X163417205Y-71490256D01*
X163495226Y-71301898D01*
X163535000Y-71101939D01*
X163535000Y-70898061D01*
X163495226Y-70698102D01*
X163465774Y-70627000D01*
X164034226Y-70627000D01*
X164004774Y-70698102D01*
X163965000Y-70898061D01*
X163965000Y-71101939D01*
X164004774Y-71301898D01*
X164082795Y-71490256D01*
X164196063Y-71659774D01*
X164340226Y-71803937D01*
X164509744Y-71917205D01*
X164698102Y-71995226D01*
X164898061Y-72035000D01*
X165101939Y-72035000D01*
X165301898Y-71995226D01*
X165490256Y-71917205D01*
X165659774Y-71803937D01*
X165803937Y-71659774D01*
X165917205Y-71490256D01*
X165995226Y-71301898D01*
X166035000Y-71101939D01*
X166035000Y-70898061D01*
X165995226Y-70698102D01*
X165965774Y-70627000D01*
X175534226Y-70627000D01*
X175504774Y-70698102D01*
X175465000Y-70898061D01*
X175465000Y-71101939D01*
X175504774Y-71301898D01*
X175582795Y-71490256D01*
X175696063Y-71659774D01*
X175840226Y-71803937D01*
X176009744Y-71917205D01*
X176198102Y-71995226D01*
X176398061Y-72035000D01*
X176601939Y-72035000D01*
X176801898Y-71995226D01*
X176990256Y-71917205D01*
X177159774Y-71803937D01*
X177303937Y-71659774D01*
X177417205Y-71490256D01*
X177495226Y-71301898D01*
X177535000Y-71101939D01*
X177535000Y-70898061D01*
X177495226Y-70698102D01*
X177465774Y-70627000D01*
X193873000Y-70627000D01*
X193873000Y-85534226D01*
X193801898Y-85504774D01*
X193601939Y-85465000D01*
X193398061Y-85465000D01*
X193198102Y-85504774D01*
X193009744Y-85582795D01*
X192840226Y-85696063D01*
X192696063Y-85840226D01*
X192582795Y-86009744D01*
X192504774Y-86198102D01*
X192465000Y-86398061D01*
X192465000Y-86601939D01*
X192504774Y-86801898D01*
X192582795Y-86990256D01*
X192696063Y-87159774D01*
X192840226Y-87303937D01*
X193009744Y-87417205D01*
X193198102Y-87495226D01*
X193398061Y-87535000D01*
X193601939Y-87535000D01*
X193801898Y-87495226D01*
X193873000Y-87465774D01*
X193873000Y-110373000D01*
X114127000Y-110373000D01*
X114127000Y-104887500D01*
X123306928Y-104887500D01*
X123306928Y-106587500D01*
X123319188Y-106711982D01*
X123355498Y-106831680D01*
X123414463Y-106941994D01*
X123493815Y-107038685D01*
X123590506Y-107118037D01*
X123700820Y-107177002D01*
X123820518Y-107213312D01*
X123945000Y-107225572D01*
X125645000Y-107225572D01*
X125769482Y-107213312D01*
X125889180Y-107177002D01*
X125999494Y-107118037D01*
X126096185Y-107038685D01*
X126175537Y-106941994D01*
X126234502Y-106831680D01*
X126270812Y-106711982D01*
X126283072Y-106587500D01*
X126283072Y-104887500D01*
X126270812Y-104763018D01*
X126234502Y-104643320D01*
X126175537Y-104533006D01*
X126096185Y-104436315D01*
X126026956Y-104379500D01*
X188330928Y-104379500D01*
X188330928Y-106079500D01*
X188343188Y-106203982D01*
X188379498Y-106323680D01*
X188438463Y-106433994D01*
X188517815Y-106530685D01*
X188614506Y-106610037D01*
X188724820Y-106669002D01*
X188844518Y-106705312D01*
X188969000Y-106717572D01*
X190669000Y-106717572D01*
X190793482Y-106705312D01*
X190913180Y-106669002D01*
X191023494Y-106610037D01*
X191120185Y-106530685D01*
X191199537Y-106433994D01*
X191258502Y-106323680D01*
X191294812Y-106203982D01*
X191307072Y-106079500D01*
X191307072Y-104379500D01*
X191294812Y-104255018D01*
X191258502Y-104135320D01*
X191199537Y-104025006D01*
X191120185Y-103928315D01*
X191023494Y-103848963D01*
X190913180Y-103789998D01*
X190840620Y-103767987D01*
X190972475Y-103636132D01*
X191134990Y-103392911D01*
X191246932Y-103122658D01*
X191304000Y-102835760D01*
X191304000Y-102543240D01*
X191246932Y-102256342D01*
X191134990Y-101986089D01*
X190972475Y-101742868D01*
X190765632Y-101536025D01*
X190591240Y-101419500D01*
X190765632Y-101302975D01*
X190972475Y-101096132D01*
X191134990Y-100852911D01*
X191246932Y-100582658D01*
X191304000Y-100295760D01*
X191304000Y-100003240D01*
X191246932Y-99716342D01*
X191134990Y-99446089D01*
X190972475Y-99202868D01*
X190765632Y-98996025D01*
X190591240Y-98879500D01*
X190765632Y-98762975D01*
X190972475Y-98556132D01*
X191134990Y-98312911D01*
X191246932Y-98042658D01*
X191304000Y-97755760D01*
X191304000Y-97463240D01*
X191246932Y-97176342D01*
X191134990Y-96906089D01*
X190972475Y-96662868D01*
X190765632Y-96456025D01*
X190522411Y-96293510D01*
X190252158Y-96181568D01*
X189965260Y-96124500D01*
X189672740Y-96124500D01*
X189385842Y-96181568D01*
X189115589Y-96293510D01*
X188872368Y-96456025D01*
X188665525Y-96662868D01*
X188503010Y-96906089D01*
X188391068Y-97176342D01*
X188334000Y-97463240D01*
X188334000Y-97755760D01*
X188391068Y-98042658D01*
X188503010Y-98312911D01*
X188665525Y-98556132D01*
X188872368Y-98762975D01*
X189046760Y-98879500D01*
X188872368Y-98996025D01*
X188665525Y-99202868D01*
X188503010Y-99446089D01*
X188391068Y-99716342D01*
X188334000Y-100003240D01*
X188334000Y-100295760D01*
X188391068Y-100582658D01*
X188503010Y-100852911D01*
X188665525Y-101096132D01*
X188872368Y-101302975D01*
X189046760Y-101419500D01*
X188872368Y-101536025D01*
X188665525Y-101742868D01*
X188503010Y-101986089D01*
X188391068Y-102256342D01*
X188334000Y-102543240D01*
X188334000Y-102835760D01*
X188391068Y-103122658D01*
X188503010Y-103392911D01*
X188665525Y-103636132D01*
X188797380Y-103767987D01*
X188724820Y-103789998D01*
X188614506Y-103848963D01*
X188517815Y-103928315D01*
X188438463Y-104025006D01*
X188379498Y-104135320D01*
X188343188Y-104255018D01*
X188330928Y-104379500D01*
X126026956Y-104379500D01*
X125999494Y-104356963D01*
X125889180Y-104297998D01*
X125816620Y-104275987D01*
X125948475Y-104144132D01*
X126110990Y-103900911D01*
X126222932Y-103630658D01*
X126280000Y-103343760D01*
X126280000Y-103051240D01*
X126222932Y-102764342D01*
X126110990Y-102494089D01*
X125948475Y-102250868D01*
X125741632Y-102044025D01*
X125559466Y-101922305D01*
X125676355Y-101852678D01*
X125892588Y-101657769D01*
X126066641Y-101424420D01*
X126191825Y-101161599D01*
X126236476Y-101014390D01*
X126115155Y-100784500D01*
X124922000Y-100784500D01*
X124922000Y-100804500D01*
X124668000Y-100804500D01*
X124668000Y-100784500D01*
X123474845Y-100784500D01*
X123353524Y-101014390D01*
X123398175Y-101161599D01*
X123523359Y-101424420D01*
X123697412Y-101657769D01*
X123913645Y-101852678D01*
X124030534Y-101922305D01*
X123848368Y-102044025D01*
X123641525Y-102250868D01*
X123479010Y-102494089D01*
X123367068Y-102764342D01*
X123310000Y-103051240D01*
X123310000Y-103343760D01*
X123367068Y-103630658D01*
X123479010Y-103900911D01*
X123641525Y-104144132D01*
X123773380Y-104275987D01*
X123700820Y-104297998D01*
X123590506Y-104356963D01*
X123493815Y-104436315D01*
X123414463Y-104533006D01*
X123355498Y-104643320D01*
X123319188Y-104763018D01*
X123306928Y-104887500D01*
X114127000Y-104887500D01*
X114127000Y-97971240D01*
X123310000Y-97971240D01*
X123310000Y-98263760D01*
X123367068Y-98550658D01*
X123479010Y-98820911D01*
X123641525Y-99064132D01*
X123848368Y-99270975D01*
X124030534Y-99392695D01*
X123913645Y-99462322D01*
X123697412Y-99657231D01*
X123523359Y-99890580D01*
X123398175Y-100153401D01*
X123353524Y-100300610D01*
X123474845Y-100530500D01*
X124668000Y-100530500D01*
X124668000Y-100510500D01*
X124922000Y-100510500D01*
X124922000Y-100530500D01*
X126115155Y-100530500D01*
X126236476Y-100300610D01*
X126191825Y-100153401D01*
X126066641Y-99890580D01*
X125892588Y-99657231D01*
X125676355Y-99462322D01*
X125559466Y-99392695D01*
X125741632Y-99270975D01*
X125948475Y-99064132D01*
X126110990Y-98820911D01*
X126222932Y-98550658D01*
X126280000Y-98263760D01*
X126280000Y-97971240D01*
X126222932Y-97684342D01*
X126110990Y-97414089D01*
X125948475Y-97170868D01*
X125741632Y-96964025D01*
X125498411Y-96801510D01*
X125228158Y-96689568D01*
X124941260Y-96632500D01*
X124648740Y-96632500D01*
X124361842Y-96689568D01*
X124091589Y-96801510D01*
X123848368Y-96964025D01*
X123641525Y-97170868D01*
X123479010Y-97414089D01*
X123367068Y-97684342D01*
X123310000Y-97971240D01*
X114127000Y-97971240D01*
X114127000Y-93965774D01*
X114198102Y-93995226D01*
X114398061Y-94035000D01*
X114601939Y-94035000D01*
X114801898Y-93995226D01*
X114990256Y-93917205D01*
X115159774Y-93803937D01*
X115303937Y-93659774D01*
X115417205Y-93490256D01*
X115495226Y-93301898D01*
X115535000Y-93101939D01*
X115535000Y-92898061D01*
X115495226Y-92698102D01*
X115417205Y-92509744D01*
X115303937Y-92340226D01*
X115159774Y-92196063D01*
X114990256Y-92082795D01*
X114801898Y-92004774D01*
X114601939Y-91965000D01*
X114398061Y-91965000D01*
X114198102Y-92004774D01*
X114127000Y-92034226D01*
X114127000Y-88465774D01*
X114198102Y-88495226D01*
X114398061Y-88535000D01*
X114601939Y-88535000D01*
X114801898Y-88495226D01*
X114990256Y-88417205D01*
X115159774Y-88303937D01*
X115303937Y-88159774D01*
X115417205Y-87990256D01*
X115495226Y-87801898D01*
X115535000Y-87601939D01*
X115535000Y-87398061D01*
X115495226Y-87198102D01*
X115417205Y-87009744D01*
X115303937Y-86840226D01*
X115159774Y-86696063D01*
X114990256Y-86582795D01*
X114801898Y-86504774D01*
X114601939Y-86465000D01*
X114398061Y-86465000D01*
X114198102Y-86504774D01*
X114127000Y-86534226D01*
X114127000Y-84465774D01*
X114198102Y-84495226D01*
X114398061Y-84535000D01*
X114601939Y-84535000D01*
X114801898Y-84495226D01*
X114990256Y-84417205D01*
X115159774Y-84303937D01*
X115303937Y-84159774D01*
X115417205Y-83990256D01*
X115467269Y-83869390D01*
X117956024Y-83869390D01*
X118000675Y-84016599D01*
X118125859Y-84279420D01*
X118299912Y-84512769D01*
X118516145Y-84707678D01*
X118766248Y-84856657D01*
X119040609Y-84953981D01*
X119270500Y-84833314D01*
X119270500Y-83639500D01*
X119524500Y-83639500D01*
X119524500Y-84833314D01*
X119754391Y-84953981D01*
X120028752Y-84856657D01*
X120278855Y-84707678D01*
X120495088Y-84512769D01*
X120669141Y-84279420D01*
X120794325Y-84016599D01*
X120838976Y-83869390D01*
X120717655Y-83639500D01*
X119524500Y-83639500D01*
X119270500Y-83639500D01*
X118077345Y-83639500D01*
X117956024Y-83869390D01*
X115467269Y-83869390D01*
X115495226Y-83801898D01*
X115535000Y-83601939D01*
X115535000Y-83398061D01*
X115495226Y-83198102D01*
X115417205Y-83009744D01*
X115303937Y-82840226D01*
X115159774Y-82696063D01*
X114990256Y-82582795D01*
X114801898Y-82504774D01*
X114601939Y-82465000D01*
X114398061Y-82465000D01*
X114198102Y-82504774D01*
X114127000Y-82534226D01*
X114127000Y-75042500D01*
X117909428Y-75042500D01*
X117909428Y-76742500D01*
X117921688Y-76866982D01*
X117957998Y-76986680D01*
X118016963Y-77096994D01*
X118096315Y-77193685D01*
X118193006Y-77273037D01*
X118303320Y-77332002D01*
X118375880Y-77354013D01*
X118244025Y-77485868D01*
X118081510Y-77729089D01*
X117969568Y-77999342D01*
X117912500Y-78286240D01*
X117912500Y-78578760D01*
X117969568Y-78865658D01*
X118081510Y-79135911D01*
X118244025Y-79379132D01*
X118450868Y-79585975D01*
X118625260Y-79702500D01*
X118450868Y-79819025D01*
X118244025Y-80025868D01*
X118081510Y-80269089D01*
X117969568Y-80539342D01*
X117912500Y-80826240D01*
X117912500Y-81118760D01*
X117969568Y-81405658D01*
X118081510Y-81675911D01*
X118244025Y-81919132D01*
X118450868Y-82125975D01*
X118633034Y-82247695D01*
X118516145Y-82317322D01*
X118299912Y-82512231D01*
X118125859Y-82745580D01*
X118000675Y-83008401D01*
X117956024Y-83155610D01*
X118077345Y-83385500D01*
X119270500Y-83385500D01*
X119270500Y-83365500D01*
X119524500Y-83365500D01*
X119524500Y-83385500D01*
X120717655Y-83385500D01*
X120838976Y-83155610D01*
X120794325Y-83008401D01*
X120669141Y-82745580D01*
X120495088Y-82512231D01*
X120278855Y-82317322D01*
X120161966Y-82247695D01*
X120344132Y-82125975D01*
X120550975Y-81919132D01*
X120713490Y-81675911D01*
X120778277Y-81519500D01*
X188330928Y-81519500D01*
X188330928Y-83219500D01*
X188343188Y-83343982D01*
X188379498Y-83463680D01*
X188438463Y-83573994D01*
X188517815Y-83670685D01*
X188614506Y-83750037D01*
X188724820Y-83809002D01*
X188844518Y-83845312D01*
X188969000Y-83857572D01*
X190669000Y-83857572D01*
X190793482Y-83845312D01*
X190913180Y-83809002D01*
X191023494Y-83750037D01*
X191120185Y-83670685D01*
X191199537Y-83573994D01*
X191258502Y-83463680D01*
X191294812Y-83343982D01*
X191307072Y-83219500D01*
X191307072Y-81519500D01*
X191294812Y-81395018D01*
X191258502Y-81275320D01*
X191199537Y-81165006D01*
X191120185Y-81068315D01*
X191023494Y-80988963D01*
X190913180Y-80929998D01*
X190840620Y-80907987D01*
X190972475Y-80776132D01*
X191134990Y-80532911D01*
X191246932Y-80262658D01*
X191304000Y-79975760D01*
X191304000Y-79683240D01*
X191246932Y-79396342D01*
X191134990Y-79126089D01*
X190972475Y-78882868D01*
X190765632Y-78676025D01*
X190583466Y-78554305D01*
X190700355Y-78484678D01*
X190916588Y-78289769D01*
X191090641Y-78056420D01*
X191215825Y-77793599D01*
X191260476Y-77646390D01*
X191139155Y-77416500D01*
X189946000Y-77416500D01*
X189946000Y-77436500D01*
X189692000Y-77436500D01*
X189692000Y-77416500D01*
X188498845Y-77416500D01*
X188377524Y-77646390D01*
X188422175Y-77793599D01*
X188547359Y-78056420D01*
X188721412Y-78289769D01*
X188937645Y-78484678D01*
X189054534Y-78554305D01*
X188872368Y-78676025D01*
X188665525Y-78882868D01*
X188503010Y-79126089D01*
X188391068Y-79396342D01*
X188334000Y-79683240D01*
X188334000Y-79975760D01*
X188391068Y-80262658D01*
X188503010Y-80532911D01*
X188665525Y-80776132D01*
X188797380Y-80907987D01*
X188724820Y-80929998D01*
X188614506Y-80988963D01*
X188517815Y-81068315D01*
X188438463Y-81165006D01*
X188379498Y-81275320D01*
X188343188Y-81395018D01*
X188330928Y-81519500D01*
X120778277Y-81519500D01*
X120825432Y-81405658D01*
X120882500Y-81118760D01*
X120882500Y-80826240D01*
X120825432Y-80539342D01*
X120713490Y-80269089D01*
X120550975Y-80025868D01*
X120344132Y-79819025D01*
X120169740Y-79702500D01*
X120344132Y-79585975D01*
X120550975Y-79379132D01*
X120713490Y-79135911D01*
X120825432Y-78865658D01*
X120882500Y-78578760D01*
X120882500Y-78286240D01*
X120825432Y-77999342D01*
X120713490Y-77729089D01*
X120550975Y-77485868D01*
X120419120Y-77354013D01*
X120491680Y-77332002D01*
X120601994Y-77273037D01*
X120698685Y-77193685D01*
X120778037Y-77096994D01*
X120837002Y-76986680D01*
X120873312Y-76866982D01*
X120885572Y-76742500D01*
X120885572Y-75106390D01*
X188377524Y-75106390D01*
X188422175Y-75253599D01*
X188547359Y-75516420D01*
X188721412Y-75749769D01*
X188937645Y-75944678D01*
X189063255Y-76019500D01*
X188937645Y-76094322D01*
X188721412Y-76289231D01*
X188547359Y-76522580D01*
X188422175Y-76785401D01*
X188377524Y-76932610D01*
X188498845Y-77162500D01*
X189692000Y-77162500D01*
X189692000Y-74876500D01*
X189946000Y-74876500D01*
X189946000Y-77162500D01*
X191139155Y-77162500D01*
X191260476Y-76932610D01*
X191215825Y-76785401D01*
X191090641Y-76522580D01*
X190916588Y-76289231D01*
X190700355Y-76094322D01*
X190574745Y-76019500D01*
X190700355Y-75944678D01*
X190916588Y-75749769D01*
X191090641Y-75516420D01*
X191215825Y-75253599D01*
X191260476Y-75106390D01*
X191139155Y-74876500D01*
X189946000Y-74876500D01*
X189692000Y-74876500D01*
X188498845Y-74876500D01*
X188377524Y-75106390D01*
X120885572Y-75106390D01*
X120885572Y-75042500D01*
X120873312Y-74918018D01*
X120837002Y-74798320D01*
X120778037Y-74688006D01*
X120698685Y-74591315D01*
X120601994Y-74511963D01*
X120491680Y-74452998D01*
X120371982Y-74416688D01*
X120247500Y-74404428D01*
X118547500Y-74404428D01*
X118423018Y-74416688D01*
X118303320Y-74452998D01*
X118193006Y-74511963D01*
X118096315Y-74591315D01*
X118016963Y-74688006D01*
X117957998Y-74798320D01*
X117921688Y-74918018D01*
X117909428Y-75042500D01*
X114127000Y-75042500D01*
X114127000Y-74392610D01*
X188377524Y-74392610D01*
X188498845Y-74622500D01*
X189692000Y-74622500D01*
X189692000Y-73428686D01*
X189946000Y-73428686D01*
X189946000Y-74622500D01*
X191139155Y-74622500D01*
X191260476Y-74392610D01*
X191215825Y-74245401D01*
X191090641Y-73982580D01*
X190916588Y-73749231D01*
X190700355Y-73554322D01*
X190450252Y-73405343D01*
X190175891Y-73308019D01*
X189946000Y-73428686D01*
X189692000Y-73428686D01*
X189462109Y-73308019D01*
X189187748Y-73405343D01*
X188937645Y-73554322D01*
X188721412Y-73749231D01*
X188547359Y-73982580D01*
X188422175Y-74245401D01*
X188377524Y-74392610D01*
X114127000Y-74392610D01*
X114127000Y-70627000D01*
X153534226Y-70627000D01*
X153504774Y-70698102D01*
%TD*%
M02*
