M48
; DRILL file {KiCad (5.1.6)-1} date 11/02/20 11:07:46
; FORMAT={-:-/ absolute / inch / decimal}
; #@! TF.CreationDate,2020-11-02T11:07:46+01:00
; #@! TF.GenerationSoftware,Kicad,Pcbnew,(5.1.6)-1
FMAT,2
INCH
T1C0.0157
T2C0.0315
T3C0.0394
T4C0.0433
T5C0.0591
T6C0.1260
%
G90
G05
T1
X4.065Y-3.7008
X4.1437Y-3.4646
X4.1732Y-2.8543
X4.2913Y-4.0551
X4.3406Y-3.1594
X4.5079Y-3.2874
X4.5079Y-3.4449
X4.5079Y-3.6614
X4.8425Y-4.3307
X5.2362Y-4.3307
X5.6299Y-4.3307
X6.0039Y-4.2717
X6.0236Y-4.3307
X6.0827Y-2.7953
X6.3976Y-2.7953
X6.4173Y-4.3307
X6.4961Y-2.7953
X6.5748Y-2.7953
X6.6339Y-4.3307
X6.8504Y-2.7953
X6.9488Y-2.7953
X6.9488Y-4.3307
X6.9882Y-2.815
X7.4016Y-2.8937
X7.4016Y-3.2087
X7.4016Y-3.563
X7.4016Y-3.9173
X7.4016Y-4.2323
X7.5394Y-4.2717
X7.5394Y-4.3307
X7.5984Y-4.2717
X7.6083Y-3.563
X7.6083Y-4.3209
X7.6181Y-3.4055
X7.6772Y-3.2874
X7.7153Y-3.4843
X7.7461Y-3.248
X7.7756Y-3.0512
X7.7854Y-2.9035
X7.7953Y-2.8248
X7.7953Y-3.2579
X7.8238Y-3.937
X7.8248Y-3.3366
X7.8248Y-3.9862
X7.8642Y-3.2677
X7.8979Y-3.9261
X7.9232Y-3.248
X7.9429Y-4.1142
X8.0118Y-3.4449
X8.0413Y-3.248
X8.0807Y-3.3563
X8.1201Y-3.248
T2
X5.8465Y-2.6575
X5.6102Y-2.6575
X6.0827Y-2.6575
X5.374Y-2.6575
T3
X4.7007Y-2.9879
X4.7007Y-3.0879
X4.7007Y-3.1879
X4.7007Y-3.2879
X7.4732Y-2.9429
X7.4732Y-3.0429
X7.4732Y-3.1429
X7.4732Y-3.2429
X7.4732Y-3.8429
X7.4732Y-3.9429
X7.4732Y-4.0429
X7.4732Y-4.1429
X4.9132Y-3.8629
X4.9132Y-3.9629
X4.9132Y-4.0629
X4.9132Y-4.1629
T4
X7.8315Y-3.7795
X7.9315Y-3.7795
X8.0315Y-3.7795
X4.1142Y-3.563
X4.2142Y-3.563
X4.3142Y-3.563
T5
X7.4803Y-4.5669
X8.0807Y-4.0453
X7.2835Y-4.5669
X8.0807Y-4.252
T6
X4.3898Y-4.5472
X4.3898Y-2.5787
X7.7362Y-2.5787
X7.7362Y-4.5472
T0
M30
